<svg width="81" height="81" viewBox="0 0 81 81" fill="none" xmlns="http://www.w3.org/2000/svg">
<path d="M40.5 77C30.8196 77 21.5357 73.1545 14.6906 66.3094C7.84552 59.4643 4 50.1804 4 40.5C4 30.8196 7.84552 21.5357 14.6906 14.6906C21.5357 7.84552 30.8196 4 40.5 4C50.1804 4 59.4643 7.84552 66.3094 14.6906C73.1545 21.5357 77 30.8196 77 40.5C77 50.1804 73.1545 59.4643 66.3094 66.3094C59.4643 73.1545 50.1804 77 40.5 77ZM33.2 58.75L66.05 27.725L60.575 22.25L33.2 47.8L20.425 35.025L14.95 40.5L33.2 58.75Z" fill="#097607"/>
<circle cx="40.5" cy="40.5" r="39.75" stroke="#319F43" stroke-opacity="0.8" stroke-width="1.5"/>
</svg>
