<svg width="208" height="192" viewBox="0 0 208 192" fill="none" xmlns="http://www.w3.org/2000/svg">
<g filter="url(#filter0_d_500_1551)">
<path d="M174.9 91.9163C213.214 112.921 213.214 146.996 174.9 168.009C136.586 189.022 74.4687 189.014 36.1549 168.009C-2.15882 147.004 -6.92206 112.929 31.3917 91.9163C69.7054 70.9035 136.586 70.9035 174.9 91.9163Z" fill="#F5F5F5"/>
<path d="M56.4173 164.539C53.9881 164.577 51.5898 164.026 49.4553 162.94C46.8867 161.552 45.2989 159.618 44.7461 157.195C43.8899 153.441 45.7686 149.287 47.6556 146.868L48.1876 146.179C51.4836 141.928 53.2958 139.566 52.6516 137.155C51.8826 134.245 41.6496 134.638 30.8928 135.416L27.9833 135.626C21.0587 136.112 10.7924 134.973 9.81151 132.005C9.44159 130.873 10.3602 129.698 12.5506 128.504C20.9922 123.941 36.1881 115.71 36.1881 115.71L36.6037 116.383C36.6037 116.383 21.4079 124.614 12.9662 129.177C11.7193 129.85 10.302 130.842 10.6054 131.763C11.2912 133.844 20.0321 135.393 27.921 134.836L30.8305 134.63C42.0527 133.817 52.5186 133.409 53.4621 136.964C54.1978 139.745 52.3024 142.192 48.8609 146.63L48.3289 147.319C46.5583 149.61 44.7794 153.523 45.5774 157.043C46.0803 159.245 47.5309 161.003 49.8876 162.279C54.1271 164.57 59.9835 163.858 62.5854 162.466C66.3262 160.462 81.256 152.484 81.256 152.484L81.6716 153.157C81.6716 153.157 66.7335 161.139 63.001 163.139C61.3468 163.987 58.9444 164.539 56.4173 164.539Z" fill="#E0E0E0"/>
<path d="M42.2522 119.581L18.6147 106.807L38.8731 95.8606L62.5105 108.631L42.2522 119.581Z" fill="#E0E0E0"/>
<path d="M134.466 161.369L192.693 129.92C197.806 127.154 197.806 122.634 192.693 119.872L164.941 104.877C149.101 96.3196 123.186 96.3196 107.346 104.877L68.7493 125.73C48.8692 136.474 53.8652 148.789 72.0162 158.63C90.1672 168.472 114.586 172.109 134.466 161.369Z" fill="#E0E0E0"/>
<path d="M33.3368 101.913C33.3368 101.913 32.7674 96.4674 29.9535 92.2275C27.1396 87.9876 23.2243 85.2842 19.5292 84.9574C15.8342 84.6307 12.7959 87.7698 16.7154 90.0142C20.6349 92.2586 27.6259 94.5925 30.7224 102.816L33.3368 101.913Z" fill="#F7B731"/>
<g opacity="0.15">
<path d="M33.3368 101.913C33.3368 101.913 32.7674 96.4674 29.9535 92.2275C27.1396 87.9876 23.2243 85.2842 19.5292 84.9574C15.8342 84.6307 12.7959 87.7698 16.7154 90.0142C20.6349 92.2586 27.6259 94.5925 30.7224 102.816L33.3368 101.913Z" fill="black"/>
</g>
<path d="M32.277 100.493H32.3144C32.3385 100.485 32.3605 100.472 32.3792 100.455C32.3979 100.438 32.4128 100.419 32.4233 100.396C32.4337 100.374 32.4394 100.351 32.4399 100.327C32.4405 100.302 32.436 100.278 32.4266 100.256C28.6858 91.2044 21.3124 87.3418 17.9415 86.5639C17.9164 86.558 17.8903 86.5568 17.8647 86.5604C17.8391 86.5639 17.8145 86.5722 17.7923 86.5846C17.7701 86.5971 17.7508 86.6135 17.7354 86.633C17.72 86.6524 17.7088 86.6746 17.7025 86.6981C17.6963 86.7216 17.695 86.746 17.6988 86.7699C17.7026 86.7939 17.7114 86.8169 17.7247 86.8377C17.7381 86.8585 17.7556 86.8766 17.7764 86.891C17.7972 86.9054 17.8208 86.9158 17.8459 86.9217C21.1461 87.6997 28.3658 91.4806 32.0608 100.388C32.0782 100.427 32.1093 100.458 32.1487 100.477C32.1882 100.496 32.2335 100.502 32.277 100.493Z" fill="white"/>
<path d="M14.0428 98.5483C14.3379 99.2251 15.1069 99.5908 15.8218 99.8786C16.5367 100.166 17.3139 100.482 17.688 101.123C18.4361 102.415 17.0936 104.169 17.9041 105.429C18.0944 105.683 18.3377 105.897 18.6192 106.059C18.9007 106.222 19.2146 106.329 19.5417 106.375C20.0779 106.48 20.6266 106.495 21.1711 106.55C21.4307 106.55 21.6902 106.537 21.9483 106.511C22.7091 106.373 23.497 106.472 24.1928 106.791C25.2568 107.386 25.5519 108.673 26.1837 109.673C26.5728 110.264 27.0943 110.769 27.7121 111.153C28.3299 111.537 29.0294 111.791 29.7623 111.898C30.9843 112.081 32.8256 111.867 33.1581 111.369C33.4075 110.98 32.7425 109.813 32.7217 109.362C32.7145 108.215 32.592 107.072 32.3559 105.947C32.2237 105.437 32.1595 104.915 32.1648 104.391C32.1648 103.803 32.2022 103.224 32.2146 102.633C32.2271 102.041 32.4017 101.505 32.1731 100.859C31.9273 100.259 31.5869 99.696 31.1631 99.1901C30.7682 98.6689 30.3692 98.1554 29.9619 97.6342C29.512 97.0102 28.9784 96.4428 28.3741 95.946C27.8319 95.5333 27.2053 95.2286 26.5327 95.0506C25.8601 94.8727 25.1558 94.8253 24.4629 94.9113C23.3158 95.063 22.1852 95.6348 21.0131 95.5531C19.841 95.4715 18.7603 95.1642 17.5924 95.2108C16.9744 95.2117 16.3647 95.3442 15.8094 95.5983C15.2542 95.8524 14.7681 96.2214 14.3878 96.6773C14.1698 96.9383 14.0242 97.2457 13.964 97.5722C13.9038 97.8987 13.9309 98.234 14.0428 98.5483Z" fill="#F7B731"/>
<path d="M32.2312 108.502C32.2539 108.498 32.2754 108.489 32.2944 108.476C32.3133 108.464 32.3293 108.448 32.3414 108.429C32.3534 108.411 32.3613 108.39 32.3645 108.368C32.3677 108.347 32.3662 108.325 32.36 108.304C29.8038 98.2683 18.6231 96.5529 15.9963 96.6657C15.9496 96.6677 15.9056 96.6868 15.8738 96.7187C15.8419 96.7507 15.8247 96.7931 15.8259 96.8368C15.8269 96.8583 15.8325 96.8794 15.8423 96.8988C15.852 96.9182 15.8658 96.9357 15.8828 96.9501C15.8998 96.9646 15.9197 96.9758 15.9413 96.983C15.9629 96.9903 15.9858 96.9935 16.0087 96.9924C18.5816 96.8835 29.5171 98.5484 32.0192 108.382C32.0319 108.423 32.0607 108.459 32.1 108.481C32.1393 108.503 32.1861 108.511 32.2312 108.502Z" fill="white"/>
<path d="M19.9075 103.146C19.9425 103.14 19.9746 103.124 19.9989 103.099C21.0599 102.286 22.2991 101.701 23.6287 101.386C24.9582 101.07 26.3456 101.033 27.6925 101.275C27.7151 101.279 27.7384 101.279 27.7609 101.274C27.7834 101.27 27.8048 101.261 27.8237 101.249C27.8427 101.236 27.8588 101.221 27.8712 101.202C27.8837 101.184 27.8921 101.164 27.8961 101.143C27.9035 101.1 27.8929 101.056 27.8665 101.021C27.8402 100.985 27.8001 100.961 27.7548 100.952C26.3535 100.7 24.9101 100.741 23.5277 101.072C22.1453 101.403 20.858 102.016 19.7579 102.866C19.7414 102.881 19.7283 102.899 19.7194 102.918C19.7104 102.938 19.7058 102.959 19.7058 102.981C19.7058 103.002 19.7104 103.023 19.7194 103.043C19.7283 103.063 19.7414 103.081 19.7579 103.095C19.7771 103.114 19.8006 103.128 19.8265 103.137C19.8524 103.146 19.8801 103.149 19.9075 103.146Z" fill="white"/>
<path d="M41.6205 61.2217L38.2414 52.1001L31.8114 48.6265L31.8156 55.9237V112.482L41.6205 117.78V61.2217Z" fill="#F7B731"/>
<g opacity="0.5">
<path d="M41.6205 61.2217L38.2414 52.1001L31.8114 48.6265L31.8156 55.9237V112.482L41.6205 117.78V61.2217Z" fill="black"/>
</g>
<path d="M56.8163 42.0645L60.1913 51.1861L41.6205 61.2218L38.2455 52.1002L56.8163 42.0645Z" fill="#F7B731"/>
<path opacity="0.2" d="M56.8163 42.0645L60.1913 51.1861L41.6205 61.2218L38.2455 52.1002L56.8163 42.0645Z" fill="black"/>
<path d="M56.8165 42.0644L50.3865 38.5908L31.8157 48.6265L38.2456 52.1001L56.8165 42.0644Z" fill="#F7B731"/>
<path opacity="0.1" d="M56.8165 42.0644L50.3865 38.5908L31.8157 48.6265L38.2456 52.1001L56.8165 42.0644Z" fill="black"/>
<path d="M41.6205 61.2217C41.7078 65.9361 41.7452 70.6467 41.7785 75.3611L41.8283 89.5006L41.7785 103.64L41.7327 110.708L41.633 117.78L41.5291 110.708L41.4709 103.64L41.4252 89.5006L41.475 75.3611C41.4958 70.6467 41.5332 65.9361 41.6205 61.2217Z" fill="white"/>
<path d="M60.1914 51.186C58.7658 52.0496 57.3152 52.8781 55.8646 53.6989C54.414 54.5196 52.9551 55.3131 51.4796 56.1183C50.0041 56.9235 48.5327 57.6976 47.0447 58.4522L44.8127 59.5958C44.0604 59.9653 43.3164 60.3465 42.5558 60.7044C43.2707 60.2687 43.9939 59.8564 44.713 59.4285L46.8868 58.1916C48.3373 57.3708 49.7962 56.5773 51.2718 55.7721C52.7473 54.9669 54.2187 54.1929 55.7025 53.4382C57.1863 52.6836 58.6785 51.9095 60.1914 51.186Z" fill="white"/>
<path d="M56.6958 42.1228C55.2702 42.9863 53.8196 43.811 52.369 44.6317C50.9184 45.4525 49.4595 46.246 47.984 47.0551C46.5085 47.8642 45.0371 48.611 43.5532 49.389L41.3171 50.5403C40.5648 50.9099 39.8208 51.2911 39.0643 51.6489C39.7751 51.2133 40.4983 50.801 41.2173 50.377L43.3911 49.1361C44.8459 48.3154 46.3006 47.5257 47.7762 46.7167C49.2517 45.9076 50.723 45.1607 52.211 44.3828C53.699 43.6048 55.1995 42.8463 56.6958 42.1228Z" fill="white"/>
<path d="M41.6205 61.2217L60.1913 51.186L60.1955 107.748L41.6205 117.78V61.2217Z" fill="#F7B731"/>
<path opacity="0.3" d="M41.6205 61.2217L60.1913 51.186L60.1955 107.748L41.6205 117.78V61.2217Z" fill="black"/>
<path d="M43.2831 62.1202L58.5288 53.8816L58.5329 106.849L43.2831 115.088V62.1202Z" fill="#455A64"/>
<path d="M56.8163 56.6589V78.5547L44.9955 84.9379V63.046L55.9725 57.114L56.8163 56.6589Z" fill="#37474F"/>
<path d="M56.8164 56.6589L55.9727 57.114L55.9768 78.0996L56.8164 78.5547V56.6589Z" fill="#263238"/>
<path d="M55.9767 78.0995L44.9955 84.0276V63.046L55.9725 57.114L55.9767 78.0995Z" fill="#F7B731"/>
<path d="M51.7538 61.6846L48.6033 67.1575L50.7854 67.6788L49.7006 72.2726L52.5851 66.5196L50.3822 66.0723L51.7538 61.6846Z" fill="#FAFAFA"/>
<path opacity="0.15" d="M47.1361 75.6296L54.2561 71.7826C54.5055 71.6465 54.7091 71.7437 54.7091 71.9965C54.6976 72.1378 54.6506 72.2745 54.5718 72.3955C54.4931 72.5165 54.3849 72.6184 54.2561 72.6928L47.1361 76.5437C46.8909 76.676 46.6873 76.5826 46.6873 76.3298C46.698 76.1883 46.7443 76.0511 46.8222 75.9295C46.9002 75.8078 47.0078 75.7051 47.1361 75.6296Z" fill="black"/>
<path opacity="0.15" d="M47.1361 77.4577L54.2561 73.6068C54.5055 73.4745 54.7091 73.5679 54.7091 73.8207C54.6979 73.9621 54.651 74.0989 54.5723 74.22C54.4935 74.341 54.3851 74.4428 54.2561 74.517L47.1361 78.3679C46.8909 78.5002 46.6873 78.4068 46.6873 78.154C46.698 78.013 46.7443 77.8764 46.8223 77.7554C46.9003 77.6343 47.0079 77.5323 47.1361 77.4577Z" fill="black"/>
<path opacity="0.15" d="M47.1361 79.2821L54.2561 75.4351C54.5055 75.299 54.7091 75.3923 54.7091 75.6451C54.6976 75.7869 54.6506 75.9242 54.5719 76.0458C54.4932 76.1675 54.385 76.27 54.2561 76.3453L47.1361 80.1923C46.8909 80.3285 46.6873 80.2312 46.6873 79.9823C46.6977 79.8407 46.7438 79.7034 46.8218 79.5817C46.8998 79.46 47.0076 79.3574 47.1361 79.2821Z" fill="black"/>
<path d="M32.9794 71.1835C32.9794 70.1994 33.3534 69.5148 33.9395 69.2386C34.0185 69.1997 34.3551 69.0285 34.4175 68.9819C34.937 68.7018 35.6395 68.7329 36.4084 69.1491C38.0128 70.0166 39.3179 72.2182 39.3179 74.0659V78.3641C39.3179 79.2938 38.9895 79.9511 38.4575 80.2701C38.3494 80.3362 37.9546 80.5424 37.8631 80.5891C37.3478 80.8613 36.6536 80.8263 35.893 80.414C34.2845 79.5466 32.9835 77.345 32.9835 75.4973L32.9794 71.1835Z" fill="#F7B731"/>
<path d="M35.8889 69.3863C34.2803 68.5189 32.9794 69.3163 32.9794 71.164V75.4622C32.9794 77.3099 34.2803 79.5115 35.8889 80.3789C37.4974 81.2464 38.7983 80.449 38.7983 78.6013V74.2953C38.7942 72.4554 37.4932 70.2538 35.8889 69.3863Z" fill="#F7B731"/>
<path opacity="0.7" d="M35.8889 69.3863C34.2803 68.5189 32.9794 69.3163 32.9794 71.164V75.4622C32.9794 77.3099 34.2803 79.5115 35.8889 80.3789C37.4974 81.2464 38.7983 80.449 38.7983 78.6013V74.2953C38.7942 72.4554 37.4932 70.2538 35.8889 69.3863Z" fill="white"/>
<path opacity="0.5" d="M37.9088 80.5191C38.0418 80.4452 38.3619 80.2857 38.4491 80.2273C38.9853 79.9123 39.3137 79.2471 39.3137 78.3213V74.0309C39.2879 73.1345 39.0449 72.2553 38.6029 71.4597L38.0875 71.7359C38.5282 72.5304 38.7699 73.4083 38.7941 74.3032V78.582C38.7941 79.5427 38.4533 80.2118 37.9088 80.5191Z" fill="white"/>
<path opacity="0.7" d="M36.9487 80.7175C37.0715 80.7331 37.1959 80.7331 37.3187 80.7175C37.1957 80.7292 37.0717 80.7292 36.9487 80.7175Z" fill="white"/>
<path opacity="0.9" d="M34.0352 69.1531C34.341 69.0512 34.6685 69.0193 34.9902 69.0598C35.3119 69.1004 35.6187 69.2124 35.8848 69.3865C36.839 69.9551 37.6025 70.764 38.0877 71.7204L38.603 71.4442C38.124 70.4865 37.3626 69.6768 36.4085 69.1103C35.6395 68.6941 34.9371 68.663 34.4175 68.9431L34.0352 69.1531Z" fill="white"/>
<path d="M35.8888 71.9614C35.0866 71.5257 34.4341 71.8797 34.4341 72.7393C34.4607 73.2118 34.6064 73.6716 34.8592 74.0813C35.112 74.491 35.4649 74.8389 35.8888 75.0966C36.691 75.5283 37.3394 75.1783 37.3394 74.3186C37.3132 73.8465 37.1682 73.3869 36.9161 72.9772C36.664 72.5676 36.312 72.2195 35.8888 71.9614Z" fill="#37474F"/>
<path d="M34.7833 72.5683C34.7606 72.2858 34.8576 72.0063 35.0534 71.7903C35.3431 71.7471 35.6396 71.8068 35.8847 71.9576C36.3046 72.2134 36.6546 72.5578 36.9065 72.9631C37.1585 73.3685 37.3053 73.8234 37.3353 74.2915C37.3576 74.5739 37.2606 74.8532 37.0651 75.0694C36.776 75.1142 36.4794 75.0559 36.2339 74.9061C35.8134 74.6499 35.4631 74.3049 35.2111 73.8988C34.9592 73.4928 34.8126 73.037 34.7833 72.5683Z" fill="#455A64"/>
<path d="M86.5264 92.0834L86.1523 93.5421C85.2919 95.0514 83.3883 96.9574 82.7066 96.7979C82.0956 96.6579 81.7216 95.8254 81.5304 94.7985C81.4389 94.3075 81.3861 93.8109 81.3724 93.3126C81.3142 91.6945 82.0832 87.9291 84.4773 86.9255C84.7178 86.8297 84.9845 86.807 85.2396 86.8608C85.4947 86.9145 85.7253 87.042 85.8987 87.2251C86.2187 87.5242 86.4569 87.8911 86.5929 88.2948C86.9919 89.415 86.5804 92.0251 86.5264 92.0834Z" fill="#F7B731"/>
<path opacity="0.3" d="M86.5264 92.0834C86.4017 92.6864 86.1523 93.5421 86.1523 93.5421C85.2919 95.0514 83.3883 96.9574 82.7066 96.7979C82.0956 96.6579 81.7216 95.8254 81.5304 94.7985C81.4389 94.3075 81.3861 93.8109 81.3724 93.3126C81.3142 91.6945 82.0832 87.9291 84.4773 86.9255C84.7178 86.8297 84.9845 86.807 85.2396 86.8608C85.4947 86.9145 85.7253 87.042 85.8987 87.2251C86.2187 87.5242 86.4569 87.8911 86.5929 88.2948C86.9919 89.415 86.5804 92.0251 86.5264 92.0834Z" fill="black"/>
<path d="M86.1523 93.5421C85.2919 95.0514 83.3883 96.9574 82.7066 96.7979C82.0956 96.6579 81.7216 95.8254 81.5304 94.7985C81.4389 94.3075 81.3861 93.8109 81.3724 93.3126C81.3142 91.6945 82.0832 87.9291 84.4773 86.9255C84.7178 86.8297 84.9845 86.807 85.2396 86.8608C85.4947 86.9145 85.7253 87.042 85.8987 87.2251L85.5704 87.9174C83.9078 88.5904 83.4465 91.0098 83.6003 92.8497C83.754 94.6896 85.1922 94.4912 86.1523 93.5421Z" fill="#F7B731"/>
<path opacity="0.35" d="M86.1523 93.5421C85.2919 95.0514 83.3883 96.9574 82.7066 96.7979C82.0956 96.6579 81.7216 95.8254 81.5304 94.7985C81.4389 94.3075 81.3861 93.8109 81.3724 93.3126C81.3142 91.6945 82.0832 87.9291 84.4773 86.9255C84.7178 86.8297 84.9845 86.807 85.2396 86.8608C85.4947 86.9145 85.7253 87.042 85.8987 87.2251L85.5704 87.9174C83.9078 88.5904 83.4465 91.0098 83.6003 92.8497C83.754 94.6896 85.1922 94.4912 86.1523 93.5421Z" fill="black"/>
<path d="M86.5887 88.2987C85.9819 87.6996 84.4773 87.6685 83.2137 89.2984C81.9502 90.9282 81.5512 93.7172 81.5304 94.8024C81.4393 94.31 81.3852 93.8122 81.3683 93.3126C81.3101 91.6984 82.079 87.9291 84.4731 86.9295C85.4748 86.4977 86.3019 87.4546 86.5887 88.2987Z" fill="#37474F"/>
<path d="M165.752 87.4779L141.902 75.1666C140.897 74.5051 139.769 74.0225 138.577 73.7429C139.608 68.27 131.096 61.9335 123.198 64.0417C123.198 64.0417 105.326 71.0434 100.92 75.4583C94.3363 82.071 86.3726 89.3527 83.9951 95.0435C83.5795 96.0743 123.776 133.525 123.776 133.525L140.406 142.523L183.429 96.5995C180.029 90.1929 175.619 85.1556 165.752 87.4779ZM123.161 66.3951C126.465 65.5704 128.789 65.5471 131.931 68.2661C134.051 70.106 134.745 75.5867 132.887 76.4969L119.483 83.0707H119.462L119.316 83.1407C118.119 83.7281 118.269 82.495 118.485 81.4331C118.992 78.7452 120.064 73.1011 120.663 69.9231C120.883 68.2622 121.656 66.7685 123.161 66.3951ZM86.8173 95.6892C88.243 91.1926 97.4619 82.4639 99.5526 80.6551C104.785 76.1546 109.112 73.1478 110.53 72.4204C114.067 70.6077 115.9 69.7286 117.134 69.1607C118.672 68.4528 119.113 68.7912 119.075 69.2035C119.054 69.4058 119.021 69.6547 118.967 69.9465L117.305 78.3562C117.026 79.5776 116.669 79.8383 114.495 80.9469C106.444 85.0389 86.8714 95.6659 86.8173 95.6892Z" fill="#F7B731"/>
<path opacity="0.2" d="M165.752 87.4779L141.902 75.1666C140.897 74.5051 139.769 74.0225 138.577 73.7429C139.608 68.27 131.095 61.9335 123.198 64.0417C123.198 64.0417 106.61 70.9889 102.196 75.4233C95.6123 82.036 87.1955 89.9946 84.8264 95.6854C84.4107 96.7162 123.776 133.525 123.776 133.525L140.406 142.523L183.429 96.5995C180.029 90.1929 175.619 85.1556 165.752 87.4779ZM123.161 66.3951C126.465 65.5704 128.789 65.5471 131.931 68.2661C134.051 70.106 134.745 75.5867 132.887 76.4969L119.482 83.0707H119.462L119.316 83.1407C118.119 83.7281 118.269 82.495 118.485 81.4331C118.992 78.7452 120.064 73.1011 120.663 69.9231C120.883 68.2622 121.656 66.7685 123.161 66.3951ZM86.8173 95.6892C88.243 91.1926 97.4619 82.4639 99.5525 80.6551C104.785 76.1546 109.112 73.1478 110.53 72.4204C114.067 70.6077 115.9 69.7286 117.134 69.1607C118.672 68.4528 119.113 68.7912 119.075 69.2035C119.054 69.4058 119.021 69.6547 118.967 69.9465L117.305 78.3562C117.026 79.5776 116.669 79.8383 114.495 80.9469C106.444 85.0389 86.8713 95.6659 86.8173 95.6892Z" fill="black"/>
<path d="M135.892 107.277L131.021 107.188L123.614 103.212C122.922 102.887 122.166 102.701 121.392 102.666C120.619 102.632 119.847 102.749 119.125 103.01L110.135 106.803L103.975 106.69V110.054C103.975 110.443 104.262 110.832 104.844 111.136L120.979 119.853C121.633 120.17 122.369 120.309 123.104 120.254C123.838 120.2 124.542 119.955 125.135 119.546L135.156 111.933C135.375 111.784 135.555 111.59 135.682 111.366C135.81 111.143 135.881 110.895 135.892 110.642V107.277Z" fill="#37474F"/>
<path d="M104.84 107.771L120.975 116.492C121.629 116.808 122.365 116.947 123.1 116.892C123.834 116.838 124.537 116.593 125.131 116.185L135.152 108.568C136.233 107.748 136.129 106.554 134.919 105.908L123.614 99.8436C122.922 99.5195 122.165 99.3341 121.392 99.2992C120.619 99.2644 119.847 99.3809 119.125 99.6414L104.964 105.62C103.684 106.157 103.634 107.121 104.84 107.771Z" fill="#455A64"/>
<path d="M135.896 107.281V110.638C135.886 110.891 135.815 111.138 135.687 111.361C135.56 111.584 135.379 111.777 135.16 111.925L125.139 119.538C124.571 119.943 123.89 120.187 123.177 120.238V116.873C123.89 116.822 124.571 116.579 125.139 116.173L135.16 108.557C135.377 108.409 135.555 108.217 135.682 107.997C135.809 107.776 135.882 107.531 135.896 107.281Z" fill="#263238"/>
<path d="M137.451 106.281C137.475 106.432 137.456 106.585 137.395 106.726C137.335 106.867 137.235 106.99 137.106 107.083L132.995 109.3C133.129 109.213 133.234 109.091 133.297 108.95C133.36 108.808 133.377 108.653 133.348 108.502L132.455 89.7146C132.41 89.2863 132.263 88.8729 132.025 88.5047C131.786 88.1365 131.463 87.8229 131.079 87.5869L121.394 82.359C121.247 82.2635 121.075 82.2061 120.896 82.1925C120.718 82.1788 120.538 82.2094 120.376 82.2812L124.454 80.0795C124.618 80.0012 124.802 79.9656 124.986 79.9765C125.171 79.9875 125.348 80.0446 125.501 80.1418L135.177 85.3697C135.563 85.6049 135.887 85.9182 136.126 86.2865C136.365 86.6548 136.512 87.0686 136.557 87.4974L137.451 106.281Z" fill="#263238"/>
<path d="M121.399 82.3512L131.096 87.583C131.48 87.8186 131.802 88.1316 132.04 88.4991C132.278 88.8666 132.426 89.2792 132.471 89.7068L133.365 108.498C133.402 109.276 132.845 109.599 132.118 109.206L118.34 101.761C117.967 101.538 117.668 101.222 117.476 100.849C117.284 100.476 117.206 100.061 117.251 99.6491L119.873 83.0435C119.88 82.8806 119.933 82.7224 120.029 82.5859C120.124 82.4494 120.257 82.3397 120.414 82.2685C120.57 82.1974 120.745 82.1675 120.918 82.1821C121.092 82.1966 121.258 82.2551 121.399 82.3512Z" fill="#37474F"/>
<path d="M136.133 86.2876L132.031 88.5048C131.798 88.1297 131.471 87.8133 131.079 87.583L121.394 82.355C121.247 82.2596 121.075 82.2022 120.896 82.1886C120.718 82.1749 120.538 82.2055 120.376 82.2773L124.454 80.0756C124.618 79.9973 124.802 79.9617 124.986 79.9726C125.171 79.9836 125.348 80.0407 125.501 80.1379L135.177 85.3658C135.569 85.5981 135.897 85.914 136.133 86.2876Z" fill="#455A64"/>
<path d="M134.441 83.5571V78.8894C134.441 75.5247 132.143 71.5571 129.312 70.0284C128.016 69.3243 126.819 69.2504 125.929 69.725L122.783 71.4054L124.171 73.8871V78.0142C124.196 78.44 124.327 78.8544 124.555 79.224C124.782 79.5936 125.099 79.908 125.48 80.1419L128.602 81.8262L130.95 86.0311L134.038 84.3507C134.176 84.2649 134.286 84.1458 134.357 84.006C134.428 83.8663 134.457 83.7112 134.441 83.5571Z" fill="#263238"/>
<path d="M129.312 76.676L133.332 74.5055C132.392 72.5878 130.942 70.8958 129.312 70.0167C128.016 69.3126 126.819 69.2387 125.929 69.7133L122.783 71.4053L124.171 73.887V74.6844L129.312 76.676Z" fill="#455A64"/>
<path d="M131.366 85.2296V80.5619C131.366 77.1972 129.067 73.2296 126.237 71.697C123.406 70.1644 121.12 71.6503 121.12 75.015V79.6828C121.145 80.1086 121.277 80.523 121.504 80.8926C121.731 81.2622 122.048 81.5766 122.429 81.8105L130.061 85.9298C130.775 86.3305 131.366 86.0154 131.366 85.2296Z" fill="#37474F"/>
<path d="M121.69 86.3537C120.497 90.4996 119.926 94.7804 119.994 99.0734C120.026 99.5131 120.153 99.9421 120.367 100.335C120.582 100.727 120.879 101.075 121.241 101.357C123.633 103.015 126.221 104.411 128.955 105.515C129.111 105.597 129.287 105.638 129.465 105.633C129.644 105.629 129.818 105.579 129.968 105.49C130.119 105.401 130.241 105.275 130.322 105.126C130.403 104.977 130.439 104.81 130.426 104.644C130.7 100.05 130.716 95.4456 130.472 90.8503C130.356 89.9622 129.884 89.1485 129.15 88.5748C127.395 87.3731 125.507 86.352 123.518 85.5291C123.342 85.4519 123.15 85.4124 122.956 85.4133C122.761 85.4143 122.57 85.4558 122.395 85.5348C122.219 85.6137 122.065 85.7282 121.943 85.8698C121.821 86.0115 121.735 86.1768 121.69 86.3537Z" fill="#F7B731"/>
<path opacity="0.15" d="M130.306 105.056C130.369 104.919 130.406 104.773 130.414 104.624C130.688 100.031 130.703 95.4264 130.46 90.8311C130.414 90.3926 130.272 89.9676 130.044 89.5824C129.508 88.8667 129.317 94.8842 129.321 98.5523C129.325 102.22 129.375 105.846 130.015 105.426L130.09 105.367C130.172 105.27 130.245 105.166 130.306 105.056Z" fill="black"/>
<g opacity="0.15">
<path d="M120.891 98.7429L121.203 98.9296C121.399 99.0541 121.681 99.2175 122.014 99.4236C122.683 99.8126 123.577 100.357 124.508 100.847C125.439 101.337 126.357 101.796 127.072 102.131C127.43 102.294 127.725 102.446 127.937 102.52C128.149 102.594 128.265 102.679 128.265 102.679L127.903 102.609C127.675 102.555 127.346 102.485 126.964 102.364C126.525 102.233 126.094 102.081 125.671 101.909C125.443 101.808 125.198 101.715 124.965 101.598C124.732 101.481 124.491 101.361 124.254 101.24C123.788 100.983 123.335 100.715 122.924 100.435C122.551 100.182 122.193 99.9105 121.852 99.622C121.548 99.3731 121.315 99.1397 121.153 98.9841C120.991 98.8285 120.891 98.7429 120.891 98.7429Z" fill="black"/>
<path d="M120.891 96.3701C120.891 96.3701 121.008 96.4324 121.203 96.5529C121.399 96.6735 121.681 96.8447 122.014 97.0469C122.683 97.4359 123.577 97.9844 124.508 98.4706C125.439 98.9568 126.357 99.4197 127.072 99.7543C127.43 99.9215 127.725 100.069 127.937 100.163L128.265 100.318C128.265 100.318 128.132 100.318 127.903 100.248C127.675 100.178 127.346 100.124 126.964 100.007C126.582 99.8904 126.133 99.7348 125.671 99.5481C125.443 99.447 125.198 99.3536 124.965 99.2369C124.732 99.1202 124.491 99.0035 124.254 98.8829C123.788 98.6262 123.335 98.3539 122.924 98.0739C122.551 97.8208 122.193 97.5494 121.852 97.2609C121.548 97.0119 121.315 96.7785 121.153 96.623C120.991 96.4674 120.891 96.3701 120.891 96.3701Z" fill="black"/>
<path d="M121.415 94.4058L121.706 94.573C121.885 94.6897 122.151 94.8336 122.458 95.0242C123.074 95.4132 123.901 95.8722 124.753 96.3001C125.605 96.728 126.486 97.1247 127.151 97.4243L127.949 97.8132C128.144 97.9027 128.252 97.961 128.252 97.961L127.916 97.8988C127.708 97.8521 127.4 97.7938 127.047 97.6965C126.694 97.5993 126.274 97.4709 125.842 97.3076C125.626 97.222 125.401 97.1403 125.181 97.0392C124.961 96.938 124.736 96.8369 124.516 96.728C124.296 96.6191 124.079 96.4985 123.872 96.374C123.664 96.2495 123.456 96.1212 123.273 95.985C122.927 95.7529 122.595 95.5023 122.28 95.2343C122.005 95.0009 121.793 94.7831 121.644 94.6392C121.494 94.4952 121.415 94.4058 121.415 94.4058Z" fill="black"/>
<path d="M121.627 92.1887C121.627 92.1887 121.731 92.2432 121.91 92.3521C122.089 92.461 122.325 92.601 122.637 92.7839C123.236 93.1417 124.034 93.6007 124.861 94.0053C125.688 94.4098 126.523 94.7832 127.184 95.0672L127.962 95.425L128.253 95.569C128.253 95.569 128.132 95.569 127.928 95.5145C127.725 95.4601 127.43 95.4134 127.097 95.3239C126.765 95.2344 126.349 95.1139 125.929 94.966C125.721 94.8844 125.513 94.8143 125.285 94.7171C125.056 94.6199 124.869 94.5226 124.636 94.4215C124.404 94.3203 124.221 94.2036 124.013 94.087C123.805 93.9703 123.618 93.8419 123.431 93.7252C123.097 93.501 122.778 93.2581 122.475 92.9978C122.205 92.7722 122.001 92.5621 121.86 92.4221C121.719 92.2821 121.627 92.1887 121.627 92.1887Z" fill="black"/>
<path d="M121.989 90.0764L122.255 90.2242L122.941 90.6132C123.619 91.0248 124.319 91.4026 125.04 91.7451C125.821 92.1147 126.64 92.4375 127.247 92.7059C127.853 92.9743 128.252 93.1805 128.252 93.1805C127.88 93.126 127.511 93.0533 127.147 92.9627C126.341 92.7742 125.558 92.5069 124.811 92.1652C124.611 92.0641 124.395 91.9669 124.217 91.8579C124.038 91.749 123.843 91.6284 123.668 91.5195C123.352 91.3073 123.05 91.076 122.766 90.8271C122.488 90.5949 122.228 90.344 121.989 90.0764Z" fill="black"/>
<path d="M122.828 88.042C122.828 88.042 123.178 88.2248 123.66 88.5165C124.142 88.8083 124.807 89.17 125.484 89.5007C126.162 89.8313 126.856 90.1386 127.38 90.3837C127.903 90.6287 128.244 90.8193 128.244 90.8193C127.917 90.7803 127.594 90.7205 127.276 90.6404C126.575 90.4687 125.896 90.2261 125.252 89.9169C125.077 89.8274 124.902 89.7379 124.736 89.6407C124.57 89.5435 124.412 89.4423 124.258 89.3412C123.983 89.1543 123.724 88.9489 123.481 88.7266C123.244 88.5149 123.026 88.286 122.828 88.042Z" fill="black"/>
</g>
<path d="M117.558 103.426C115.014 103.854 112.496 105.068 109.998 106.822C109.843 106.917 109.717 107.047 109.629 107.2C109.541 107.352 109.495 107.522 109.495 107.695C109.495 107.868 109.541 108.039 109.629 108.191C109.717 108.344 109.843 108.473 109.998 108.569C113.017 110.645 116.277 112.396 119.715 113.789C120.156 113.947 120.626 114.023 121.099 114.011C121.571 113.999 122.036 113.899 122.467 113.719C124.603 112.701 126.564 111.39 128.286 109.829C128.423 109.703 128.529 109.55 128.596 109.381C128.663 109.213 128.688 109.032 128.671 108.853C128.653 108.673 128.593 108.5 128.495 108.345C128.397 108.19 128.263 108.058 128.103 107.958C125.73 106.309 123.172 104.906 120.476 103.772C119.548 103.436 118.546 103.318 117.558 103.426Z" fill="#F7B731"/>
<g opacity="0.2">
<path d="M111.357 107.701C111.357 107.701 111.519 107.74 111.772 107.818C112.026 107.895 112.437 108.012 112.899 108.175C114.022 108.577 115.113 109.056 116.161 109.607C117.207 110.163 118.204 110.796 119.142 111.501C119.902 112.089 120.359 112.528 120.359 112.528L118.971 111.723C118.14 111.241 117.038 110.614 115.912 110.019C114.786 109.424 113.643 108.852 112.778 108.424L111.735 107.903L111.357 107.701Z" fill="black"/>
<path d="M113.784 106.394L114.2 106.511C114.47 106.592 114.865 106.705 115.322 106.872C116.447 107.27 117.537 107.748 118.585 108.3C119.632 108.854 120.629 109.488 121.565 110.194C122.325 110.782 122.783 111.221 122.783 111.221L121.399 110.416C120.567 109.934 119.462 109.308 118.335 108.712C117.209 108.117 116.066 107.545 115.206 107.118L114.179 106.581C113.925 106.472 113.784 106.394 113.784 106.394Z" fill="black"/>
<path d="M115.866 105.286L116.282 105.402C116.552 105.488 116.947 105.597 117.408 105.764C118.532 106.163 119.621 106.641 120.667 107.196C121.717 107.748 122.715 108.381 123.651 109.09C124.075 109.411 124.482 109.753 124.869 110.113C124.869 110.113 124.312 109.794 123.481 109.308C122.65 108.821 121.548 108.199 120.418 107.604C119.287 107.009 118.152 106.437 117.288 106.009L116.245 105.488C116.008 105.363 115.866 105.286 115.866 105.286Z" fill="black"/>
<path d="M118.14 104.375L118.556 104.48C118.805 104.554 119.167 104.655 119.586 104.803C120.621 105.166 121.625 105.603 122.587 106.11C123.548 106.619 124.462 107.203 125.318 107.857C126.012 108.397 126.432 108.806 126.432 108.806C126.432 108.806 126.299 108.74 126.074 108.607L125.152 108.078C124.387 107.639 123.373 107.067 122.338 106.522C121.303 105.978 120.26 105.449 119.47 105.052L118.518 104.566C118.269 104.449 118.14 104.375 118.14 104.375Z" fill="black"/>
</g>
<path d="M158.137 119.483L153.266 119.394L145.851 115.418C145.159 115.094 144.402 114.909 143.629 114.874C142.856 114.839 142.084 114.956 141.362 115.216L132.376 119.028L126.216 118.915V122.28C126.216 122.669 126.503 123.058 127.089 123.361L143.224 132.082C143.878 132.4 144.615 132.538 145.35 132.483C146.084 132.428 146.788 132.182 147.38 131.771L157.401 124.159C157.62 124.01 157.8 123.817 157.928 123.594C158.056 123.371 158.129 123.124 158.141 122.871L158.137 119.483Z" fill="#37474F"/>
<path d="M127.089 119.981L143.224 128.698C143.878 129.016 144.614 129.155 145.349 129.101C146.084 129.047 146.788 128.801 147.38 128.391L157.401 120.779C158.482 119.954 158.382 118.764 157.173 118.114L145.851 112.054C145.159 111.728 144.402 111.542 143.629 111.507C142.856 111.473 142.084 111.59 141.362 111.851L127.201 117.826C125.933 118.363 125.879 119.328 127.089 119.981Z" fill="#455A64"/>
<path d="M158.141 119.487V122.848C158.131 123.101 158.06 123.348 157.932 123.571C157.805 123.794 157.625 123.987 157.406 124.135L147.384 131.748C146.818 132.154 146.138 132.397 145.427 132.448V129.083C146.138 129.033 146.818 128.789 147.384 128.383L157.406 120.771C157.622 120.621 157.8 120.428 157.928 120.206C158.055 119.984 158.128 119.739 158.141 119.487Z" fill="#263238"/>
<path d="M159.696 118.491C159.721 118.641 159.702 118.794 159.641 118.935C159.58 119.075 159.48 119.197 159.351 119.289L155.244 121.51C155.379 121.422 155.483 121.299 155.546 121.157C155.609 121.015 155.626 120.86 155.598 120.708L154.704 101.913C154.658 101.484 154.51 101.071 154.272 100.703C154.033 100.334 153.709 100.021 153.324 99.7851L143.644 94.5611C143.495 94.4668 143.323 94.4101 143.143 94.3964C142.964 94.3828 142.784 94.4127 142.621 94.4833L146.703 92.2817C146.867 92.2052 147.05 92.1707 147.233 92.1817C147.417 92.1926 147.593 92.2485 147.746 92.3439L157.422 97.5757C157.807 97.8105 158.131 98.1232 158.37 98.4908C158.609 98.8584 158.757 99.2714 158.802 99.6995L159.696 118.491Z" fill="#263238"/>
<path d="M143.644 94.5614L153.324 99.7893C153.709 100.025 154.032 100.338 154.271 100.705C154.51 101.073 154.658 101.485 154.704 101.913L155.593 120.709C155.631 121.487 155.074 121.806 154.346 121.417L140.568 113.972C140.196 113.749 139.897 113.434 139.705 113.061C139.513 112.689 139.435 112.275 139.479 111.863L142.11 95.2576C142.113 95.0925 142.165 94.9314 142.26 94.7922C142.355 94.653 142.49 94.5412 142.649 94.4691C142.807 94.397 142.984 94.3675 143.16 94.3838C143.336 94.4 143.503 94.4615 143.644 94.5614Z" fill="#37474F"/>
<path d="M158.378 98.4976L154.28 100.711C154.044 100.337 153.717 100.021 153.324 99.789L143.644 94.5611C143.495 94.4668 143.323 94.4101 143.143 94.3964C142.964 94.3828 142.784 94.4127 142.621 94.4833L146.703 92.2817C146.867 92.2052 147.05 92.1707 147.233 92.1817C147.417 92.1926 147.593 92.2485 147.746 92.3439L157.422 97.5757C157.816 97.8059 158.144 98.1223 158.378 98.4976Z" fill="#455A64"/>
<path d="M156.687 95.7632V91.0954C156.687 87.7268 154.392 83.7592 151.558 82.2305C150.261 81.5265 149.064 81.4526 148.174 81.9271L145.049 83.6309L146.433 86.1165V90.2435C146.457 90.6695 146.588 91.084 146.817 91.4532C147.045 91.8224 147.363 92.1357 147.746 92.3674L150.863 94.0556L153.212 98.2604L156.3 96.5762C156.437 96.4862 156.546 96.3631 156.614 96.2199C156.682 96.0766 156.707 95.9188 156.687 95.7632Z" fill="#263238"/>
<path d="M151.558 88.8821L155.577 86.7116C154.637 84.7939 153.191 83.1018 151.558 82.2227C150.261 81.5187 149.064 81.4448 148.174 81.9193L145.049 83.6308L146.433 86.1164V86.9255L151.558 88.8821Z" fill="#455A64"/>
<path d="M153.611 97.4397V92.7719C153.611 89.4073 151.316 85.4396 148.482 83.911C145.647 82.3823 143.357 83.8682 143.357 87.2328V91.9006C143.382 92.3268 143.514 92.7414 143.743 93.111C143.971 93.4806 144.289 93.7949 144.67 94.0283L152.293 98.1477C153.025 98.5366 153.611 98.2216 153.611 97.4397Z" fill="#37474F"/>
<path d="M143.935 98.5406C142.745 102.687 142.174 106.967 142.239 111.26C142.272 111.7 142.4 112.129 142.614 112.522C142.828 112.915 143.125 113.264 143.486 113.547C145.879 115.205 148.467 116.6 151.2 117.706C151.356 117.786 151.533 117.826 151.711 117.821C151.889 117.816 152.063 117.766 152.213 117.676C152.364 117.587 152.486 117.461 152.566 117.312C152.647 117.163 152.683 116.997 152.671 116.83C152.946 112.237 152.961 107.633 152.717 103.037C152.604 102.148 152.131 101.334 151.395 100.762C149.641 99.5621 147.755 98.5423 145.768 97.7198C145.592 97.6419 145.399 97.6017 145.205 97.6021C145.01 97.6024 144.818 97.6434 144.642 97.722C144.467 97.8007 144.312 97.9149 144.19 98.0565C144.067 98.1981 143.98 98.3635 143.935 98.5406Z" fill="#F7B731"/>
<path opacity="0.15" d="M152.551 117.262C152.615 117.126 152.651 116.979 152.659 116.831C152.933 112.237 152.948 107.633 152.705 103.037C152.658 102.599 152.516 102.174 152.289 101.789C151.753 101.077 151.566 107.09 151.57 110.759C151.574 114.427 151.62 118.056 152.264 117.632C152.29 117.614 152.313 117.595 152.335 117.573C152.418 117.477 152.491 117.373 152.551 117.262Z" fill="black"/>
<g opacity="0.15">
<path d="M143.149 110.949L143.461 111.136C143.656 111.264 143.939 111.427 144.292 111.63C144.957 112.019 145.851 112.567 146.786 113.053C147.721 113.54 148.64 114.002 149.35 114.337C149.708 114.504 150.003 114.652 150.215 114.745L150.543 114.901C150.543 114.901 150.41 114.882 150.182 114.831C149.953 114.78 149.625 114.707 149.242 114.59C148.86 114.473 148.411 114.318 147.95 114.131C147.721 114.03 147.48 113.936 147.247 113.82C147.014 113.703 146.773 113.586 146.537 113.466C146.071 113.209 145.614 112.937 145.206 112.657C144.833 112.403 144.473 112.132 144.13 111.844C143.827 111.595 143.598 111.361 143.432 111.206C143.265 111.05 143.149 110.949 143.149 110.949Z" fill="black"/>
<path d="M143.149 108.576C143.149 108.576 143.265 108.639 143.461 108.763C143.656 108.888 143.939 109.051 144.292 109.257C144.957 109.666 145.851 110.191 146.786 110.681C147.721 111.171 148.64 111.626 149.35 111.961C149.708 112.128 150.003 112.276 150.215 112.369C150.427 112.462 150.543 112.528 150.543 112.528L150.182 112.455C149.953 112.4 149.625 112.334 149.242 112.213C148.86 112.093 148.411 111.941 147.95 111.754C147.721 111.657 147.48 111.564 147.247 111.443C147.014 111.323 146.773 111.21 146.537 111.089C146.071 110.833 145.614 110.564 145.206 110.284C144.799 110.004 144.429 109.724 144.13 109.471C143.831 109.218 143.598 108.989 143.432 108.833C143.265 108.678 143.149 108.576 143.149 108.576Z" fill="black"/>
<path d="M143.66 106.612L143.951 106.779C144.13 106.896 144.396 107.044 144.704 107.23C145.323 107.619 146.146 108.078 147.002 108.51C147.858 108.942 148.731 109.335 149.396 109.634L150.198 110.004C150.389 110.093 150.498 110.152 150.498 110.152C150.498 110.152 150.377 110.152 150.165 110.089C149.953 110.027 149.65 109.988 149.292 109.887C148.935 109.786 148.523 109.661 148.087 109.498C147.875 109.412 147.646 109.335 147.426 109.23C147.206 109.125 146.981 109.027 146.761 108.918C146.541 108.81 146.345 108.689 146.121 108.568C145.896 108.448 145.705 108.316 145.518 108.179C145.173 107.947 144.843 107.697 144.529 107.429C144.25 107.195 144.039 106.981 143.889 106.834L143.66 106.612Z" fill="black"/>
<path d="M143.872 104.395C143.872 104.395 143.98 104.453 144.155 104.558C144.33 104.663 144.571 104.811 144.882 104.99C145.481 105.348 146.279 105.807 147.106 106.211C147.933 106.616 148.789 106.989 149.429 107.277L150.207 107.635C150.394 107.721 150.498 107.779 150.498 107.779L150.173 107.721C149.97 107.678 149.675 107.623 149.342 107.53C149.01 107.437 148.594 107.324 148.174 107.172C147.966 107.094 147.759 107.02 147.53 106.923C147.301 106.826 147.114 106.733 146.882 106.631C146.649 106.53 146.466 106.41 146.258 106.293C146.05 106.176 145.863 106.052 145.676 105.931C145.341 105.708 145.022 105.465 144.72 105.204C144.45 104.978 144.246 104.768 144.105 104.628C143.964 104.488 143.872 104.395 143.872 104.395Z" fill="black"/>
<path d="M144.234 102.302L144.504 102.454L145.19 102.843C145.862 103.252 146.555 103.628 147.268 103.971C148.049 104.36 148.868 104.667 149.475 104.935C150.082 105.204 150.481 105.406 150.481 105.406C150.11 105.352 149.742 105.279 149.38 105.188C148.574 105.006 147.791 104.745 147.044 104.41C146.84 104.309 146.628 104.208 146.449 104.099C146.271 103.99 146.071 103.873 145.896 103.761C145.58 103.55 145.279 103.32 144.995 103.072C144.722 102.833 144.468 102.575 144.234 102.302Z" fill="black"/>
<path d="M145.073 100.248C145.073 100.248 145.423 100.435 145.905 100.723C146.387 101.011 147.052 101.38 147.729 101.707C148.407 102.034 149.105 102.345 149.625 102.594C150.144 102.843 150.489 103.026 150.489 103.026C150.164 102.987 149.842 102.927 149.525 102.847C148.823 102.676 148.142 102.433 147.497 102.123C147.322 102.034 147.148 101.944 146.981 101.847C146.815 101.75 146.657 101.649 146.503 101.547C146.23 101.36 145.971 101.156 145.726 100.937C145.49 100.723 145.272 100.493 145.073 100.248Z" fill="black"/>
</g>
<path d="M139.824 115.632C137.28 116.06 134.761 117.274 132.263 119.032C132.109 119.127 131.982 119.257 131.895 119.41C131.807 119.562 131.761 119.732 131.761 119.905C131.761 120.078 131.807 120.249 131.895 120.401C131.982 120.554 132.109 120.683 132.263 120.779C135.284 122.852 138.544 124.602 141.981 125.995C142.872 126.314 143.861 126.29 144.733 125.929C146.868 124.91 148.83 123.599 150.552 122.039C150.69 121.914 150.797 121.761 150.864 121.592C150.931 121.423 150.956 121.242 150.939 121.062C150.921 120.883 150.861 120.709 150.762 120.555C150.664 120.4 150.529 120.268 150.369 120.168C147.992 118.524 145.432 117.124 142.733 115.994C141.809 115.655 140.811 115.531 139.824 115.632Z" fill="#F7B731"/>
<g opacity="0.2">
<path d="M133.589 119.907L134.005 120.024C134.275 120.11 134.67 120.223 135.127 120.386C136.253 120.784 137.343 121.262 138.39 121.817C139.45 122.362 140.458 122.991 141.403 123.696C141.828 124.018 142.235 124.361 142.621 124.723L141.237 123.918C140.406 123.432 139.3 122.805 138.174 122.21C137.047 121.615 135.904 121.043 135.044 120.615L134.005 120.11C133.747 119.985 133.589 119.907 133.589 119.907Z" fill="black"/>
<path d="M136.029 118.6C136.029 118.6 136.187 118.639 136.445 118.721C136.703 118.803 137.11 118.915 137.567 119.079C138.692 119.476 139.783 119.955 140.83 120.51C141.879 121.061 142.876 121.695 143.81 122.405C144.236 122.727 144.643 123.07 145.032 123.431L143.644 122.626C142.812 122.14 141.711 121.514 140.58 120.919C139.45 120.324 138.311 119.752 137.451 119.324L136.407 118.803C136.17 118.678 136.029 118.6 136.029 118.6Z" fill="black"/>
<path d="M138.112 117.492C138.112 117.492 138.274 117.531 138.527 117.612C138.781 117.694 139.196 117.807 139.654 117.97C140.779 118.369 141.869 118.847 142.916 119.402C143.963 119.956 144.96 120.59 145.897 121.296C146.321 121.618 146.728 121.961 147.114 122.323L145.726 121.518C144.895 121.035 143.793 120.405 142.667 119.81C141.541 119.215 140.398 118.643 139.533 118.215L138.49 117.694L138.112 117.492Z" fill="black"/>
<path d="M140.385 116.585C140.385 116.585 140.53 116.617 140.801 116.69C141.071 116.764 141.412 116.862 141.836 117.013C142.869 117.374 143.871 117.809 144.832 118.316C145.795 118.826 146.71 119.41 147.567 120.063C147.954 120.363 148.325 120.681 148.677 121.016C148.677 121.016 148.544 120.946 148.324 120.814L147.397 120.285C146.636 119.845 145.618 119.273 144.583 118.729C143.548 118.184 142.505 117.655 141.715 117.258L140.763 116.772L140.385 116.585Z" fill="black"/>
</g>
<path d="M189.626 115.912L172.975 106.915L182.223 101.917L191.23 107.238L189.626 115.912Z" fill="#F7B731"/>
<path opacity="0.35" d="M189.626 115.912L172.975 106.915L182.223 101.917L191.23 107.238L189.626 115.912Z" fill="black"/>
<path d="M182.606 113.773L184.996 109.331L179.31 106.246C177.502 105.27 175.091 105.383 172.448 106.81C166.828 109.848 165.648 115.854 165.648 122.478C165.648 125.948 163.524 130.219 165.519 131.332L165.598 131.374L171.417 134.525L173.94 129.838C178.732 126.419 182.423 119.686 182.606 113.773Z" fill="#37474F"/>
<path d="M182.606 113.773L184.996 109.331L179.31 106.246C177.502 105.27 175.091 105.383 172.448 106.81C166.828 109.848 165.648 115.854 165.648 122.478C165.648 125.948 163.524 130.219 165.519 131.332L165.598 131.374L171.417 134.525L173.94 129.838C178.732 126.419 182.423 119.686 182.606 113.773Z" fill="#263238"/>
<path d="M188.537 116.507C188.537 122.222 185.15 128.83 180.611 132.487C179.916 133.047 179.169 133.547 178.379 133.98C172.759 137.018 168.2 134.109 168.204 127.485C168.204 122.482 170.806 116.784 174.501 112.991L174.53 112.96C175.645 111.794 176.942 110.793 178.379 109.992C183.982 106.97 188.537 109.887 188.537 116.507Z" fill="#37474F"/>
<path d="M178.362 114.01C181.937 112.065 184.838 114.092 184.838 118.507C184.838 122.922 181.928 128.072 178.362 130.005C174.796 131.938 171.886 129.923 171.886 125.505C171.886 121.086 174.788 115.943 178.362 114.01Z" fill="#455A64"/>
<path d="M181.28 120.763C181.051 122.961 179.559 125.303 177.955 125.987C177.681 126.134 177.367 126.2 177.053 126.177C176.738 126.154 176.439 126.043 176.193 125.859C175.619 125.411 175.324 124.486 175.453 123.249C175.677 121.051 177.165 118.713 178.778 118.029C179.143 117.854 179.56 117.799 179.962 117.873C180.893 118.083 181.442 119.164 181.28 120.763Z" fill="#FAFAFA"/>
<path d="M180.698 120.483C180.47 122.681 178.977 125.023 177.373 125.707C177.009 125.881 176.593 125.935 176.193 125.859C175.619 125.411 175.324 124.486 175.453 123.249C175.677 121.051 177.165 118.713 178.778 118.029C179.143 117.854 179.56 117.799 179.962 117.873C180.528 118.328 180.827 119.254 180.698 120.483Z" fill="#E0E0E0"/>
<path d="M188.537 116.508C188.537 122.222 185.15 128.831 180.611 132.487C183.757 129.154 185.975 125.146 187.066 120.818C187.926 116.998 187.602 111.517 184.102 110.132C180.602 108.747 175.985 111.638 174.513 112.98C175.628 111.813 176.926 110.813 178.362 110.012C183.982 106.97 188.537 109.887 188.537 116.508Z" fill="#455A64"/>
<path d="M183.429 96.5995C183.429 91.1266 172.793 82.9152 164.858 86.5638C164.858 86.5638 149.662 93.8805 146.084 98.3149C140.747 104.928 135.992 116.597 134.695 122.299C134.458 123.33 138.261 121.522 139.566 121.23C139.725 121.204 139.887 121.216 140.039 121.265C140.191 121.314 140.327 121.398 140.435 121.51L140.406 142.515L164.95 129.289C164.95 128.675 164.984 128.061 165.053 127.45C165.806 120.164 171.512 111.711 177.631 108.409C184.281 104.819 189.655 108.172 189.655 115.901C190.765 115.418 191.318 114.928 191.592 113.641C191.866 112.353 191.871 110.272 191.871 106.62C191.871 102.415 189.397 97.9998 183.429 96.5995ZM177.232 97.1363L166.113 103.146H166.093L165.964 103.216C164.879 103.803 164.796 102.57 164.796 101.508C164.796 98.8206 164.796 95.9577 164.796 92.7797C164.733 91.0993 165.211 89.6056 166.658 89.2322C169.808 88.4076 172.128 88.3842 175.781 91.1032C178.225 92.9664 178.894 96.2261 177.232 97.1363ZM140.448 116.974C141.025 112.478 144.82 106.036 145.98 103.827C148.619 98.7895 153.877 95.9849 155.153 95.2692C158.349 93.4566 160.016 92.5775 161.142 92.0095C162.547 91.3016 163.05 91.6206 163.092 92.0523C163.092 92.2546 163.125 92.5035 163.125 92.7953V103.236C163.172 103.706 163.068 104.18 162.827 104.595C162.585 105.011 162.218 105.35 161.77 105.569C161.77 105.569 140.497 116.967 140.435 116.99L140.448 116.974Z" fill="#F7B731"/>
<path opacity="0.5" d="M164.762 106.581C165.093 107.051 165.313 107.581 165.407 108.137C165.407 108.137 176.671 101.524 180.046 99.9681C181.791 99.148 183.803 98.9727 185.68 99.4772C187.558 99.9817 189.164 101.129 190.179 102.691C190.179 102.691 189.161 99.9175 186.297 98.6767C182.972 97.2335 181.122 98.1321 174.825 101.228C168.528 104.325 164.762 106.581 164.762 106.581Z" fill="white"/>
<path opacity="0.5" d="M142.866 117.986L160.477 108.568C160.708 108.73 160.892 108.945 161.011 109.191C161.13 109.437 161.181 109.707 161.159 109.976L142.866 117.986Z" fill="white"/>
<path d="M157.497 114.668C157.476 114.679 157.453 114.686 157.428 114.686C157.404 114.686 157.38 114.681 157.359 114.67C157.338 114.659 157.321 114.643 157.308 114.623C157.296 114.604 157.289 114.581 157.289 114.559V113.971C157.289 113.512 158.025 112.742 158.927 112.256L160.261 111.532C161.167 111.046 161.903 111.019 161.903 111.478V111.976C161.902 112.078 161.873 112.178 161.818 112.266C161.764 112.354 161.685 112.427 161.591 112.478L157.497 114.668Z" fill="#37474F"/>
<path opacity="0.15" d="M143.843 136.816C142.846 137.314 142.642 135.311 142.073 131.41C141.503 127.508 141.557 120.973 141.557 120.973C140.871 123.898 141.142 130.978 141.557 135.513C141.973 140.049 142.871 139.629 143.843 138.952L161.246 128.78L143.843 136.816Z" fill="black"/>
<path opacity="0.15" d="M161.94 107.717C161.94 107.717 163.233 109.136 163.233 112.213C163.233 115.913 163.274 128.111 163.274 128.111C163.274 128.111 164.006 114.921 164.451 111.852C164.895 108.782 163.233 107.052 163.233 107.052L161.94 107.717Z" fill="black"/>
<path d="M178.167 92.1107C177.435 91.0365 176.48 90.111 175.358 89.3893C174.236 88.6676 172.971 88.1644 171.637 87.9097C167.24 87.1007 163.869 88.9989 161.745 90.053C161.604 90.123 161.458 90.1931 161.329 90.2747C159.617 91.2277 154.292 94.0556 151.77 95.8839C149.35 97.6382 146.283 101.127 144.961 103.64C141.952 109.37 140.173 114.084 139.774 116.041C139.666 116.578 139.113 118.476 139.924 118.176C140.061 118.126 140.705 117.834 140.855 117.756C144.18 116.053 148.798 113.606 148.798 113.606C148.798 113.606 157.555 108.74 161.321 106.705C161.957 106.363 162.131 106.258 162.9 105.807C163.669 105.356 173.902 99.9215 177.265 98.0933C179.376 96.9535 179.53 94.3435 178.167 92.1107ZM163.1 102.808C163.143 103.275 163.037 103.745 162.796 104.156C162.555 104.568 162.189 104.904 161.745 105.122L161.683 105.157L161.599 105.204C160.373 105.912 158.033 107.184 156.196 108.125L156.15 108.148L156.051 108.203L155.913 108.277C149.575 111.513 141.004 116.321 140.95 116.344C142.215 112.137 143.903 108.051 145.992 104.142C148.631 99.1046 153.889 95.9733 155.174 95.2537C158.37 93.4411 160.037 92.562 161.163 91.994C162.568 91.2861 163.071 91.6051 163.112 92.0368C163.112 92.2391 163.146 92.488 163.146 92.7798L163.1 102.808ZM176.662 97.0625L166.088 102.777H166.068L165.939 102.847C164.854 103.434 164.771 102.201 164.771 101.139C164.771 98.4511 164.771 95.9578 164.771 92.7798C164.708 91.0994 165.186 89.6057 166.633 89.2323C169.783 88.4076 172.103 88.3843 175.756 91.1033C178.225 92.9665 178.362 96.1522 176.675 97.0625H176.662Z" fill="#263238"/>
<path d="M156.15 108.137L156.229 108.098C156.146 108.16 156.134 108.164 156.15 108.137Z" fill="#263238"/>
<path d="M157.522 107.413L157.061 107.662L157.26 107.553L157.522 107.413Z" fill="#263238"/>
<path d="M156.171 108.137L156.325 108.051L156.379 108.024L156.163 108.141L156.171 108.137Z" fill="#263238"/>
<path d="M156.716 107.849L156.857 107.771L156.969 107.713L156.533 107.946L156.35 108.047L156.491 107.969L156.533 107.946L156.716 107.849Z" fill="#263238"/>
<path opacity="0.5" d="M163.1 102.808C163.143 103.275 163.037 103.745 162.796 104.156C162.555 104.568 162.189 104.904 161.745 105.122L161.683 105.157L161.599 105.204C160.373 105.912 158.033 107.184 156.196 108.125L156.15 108.148L156.051 108.203L155.913 108.277C149.575 111.513 141.004 116.321 140.95 116.344C142.215 112.137 143.903 108.051 145.992 104.142C148.631 99.1046 153.889 95.9733 155.174 95.2536C158.37 93.441 160.037 92.5619 161.163 91.994C162.568 91.286 163.071 91.605 163.112 92.0368C163.112 92.239 163.146 92.488 163.146 92.7797L163.1 102.808Z" fill="black"/>
<path opacity="0.5" d="M176.675 97.0624L166.101 102.776H166.08L165.951 102.847C164.866 103.434 164.783 102.201 164.783 101.139C164.783 98.451 164.783 95.9576 164.783 92.7797C164.721 91.0993 165.199 89.6056 166.645 89.2322C169.796 88.4075 172.115 88.3842 175.769 91.1032C178.225 92.9664 178.362 96.1521 176.675 97.0624Z" fill="black"/>
<path d="M180.386 90.7608C175.868 85.2023 169.389 78.6129 151.35 70.1448C133.311 61.6767 130.065 60.8521 120.376 65.1775C115.16 67.3403 104.241 72.1131 100.92 75.4466C101.341 75.3739 101.771 75.3621 102.196 75.4116C108.468 77.0064 140.514 95.3819 145.801 98.6805C145.893 98.5448 145.994 98.4149 146.104 98.2915C149.683 93.8571 164.879 86.5404 164.879 86.5404C169.476 84.3932 175.889 86.2408 180.428 90.7647L180.386 90.7608Z" fill="#F7B731"/>
<path opacity="0.5" d="M180.386 90.7608C175.868 85.2023 169.389 78.6129 151.35 70.1448C133.311 61.6767 130.065 60.8521 120.376 65.1775C115.16 67.3403 104.241 72.1131 100.92 75.4466C101.341 75.3739 101.771 75.3621 102.196 75.4116C108.468 77.0064 140.514 95.3819 145.801 98.6805C145.893 98.5448 145.994 98.4149 146.104 98.2915C149.683 93.8571 164.879 86.5404 164.879 86.5404C169.476 84.3932 175.889 86.2408 180.428 90.7647L180.386 90.7608Z" fill="white"/>
<path d="M111.045 104.107C98.8584 97.4513 85.9735 93.5459 85.9486 93.542C86.2977 94.7751 86.518 97.3112 88.696 99.9991C90.3586 102.08 92.4825 104.344 95.0678 105.966C101.169 109.953 107.333 112.684 109.428 113.855C119.923 119.18 133.12 120.911 134.886 118.95C134.886 118.95 120.746 109.401 111.045 104.107Z" fill="#455A64"/>
<path d="M134.886 118.95C134.387 118.658 117.795 109.086 110.126 104.772C102.828 100.664 87.7774 94.3161 85.9486 93.542C94.6797 96.2472 103.09 99.7875 111.045 104.107C119.254 108.676 127.211 113.63 134.886 118.95Z" fill="#37474F"/>
<path d="M140.402 142.523L123.755 133.525L133.003 128.527L140.402 132.541V142.523Z" fill="#F7B731"/>
<path opacity="0.35" d="M140.402 142.523L123.755 133.525L133.003 128.527L140.402 132.541V142.523Z" fill="black"/>
<path d="M133.548 140.286L135.942 135.844L130.264 132.759C128.452 131.787 126.045 131.896 123.398 133.327C117.778 136.365 113.223 144.195 113.223 150.831C113.223 154.301 114.47 156.748 116.469 157.856L116.548 157.899L122.367 161.05L124.89 156.382C129.678 152.94 133.365 146.195 133.548 140.286Z" fill="#37474F"/>
<path d="M133.548 140.286L135.942 135.844L130.264 132.759C128.452 131.787 126.045 131.896 123.398 133.327C117.778 136.365 113.223 144.195 113.223 150.831C113.223 154.301 114.47 156.748 116.469 157.856L116.548 157.899L122.367 161.05L124.89 156.382C129.678 152.94 133.365 146.195 133.548 140.286Z" fill="#263238"/>
<path d="M139.479 143.021C139.479 148.731 136.091 155.343 131.557 159C131.55 158.998 131.543 158.998 131.536 159C130.843 159.562 130.096 160.063 129.304 160.497C123.685 163.535 119.125 160.626 119.133 154.001C119.133 148.999 121.731 143.301 125.426 139.508L125.455 139.477C126.571 138.311 127.868 137.311 129.304 136.509C134.923 133.49 139.479 136.396 139.479 143.021Z" fill="#37474F"/>
<path d="M129.304 140.523C132.883 138.578 135.78 140.605 135.78 145.02C135.78 149.435 132.87 154.585 129.304 156.514C125.738 158.444 122.828 156.432 122.828 152.018C122.828 147.603 125.73 142.456 129.304 140.523Z" fill="#455A64"/>
<path d="M132.23 147.299C131.985 149.493 130.472 151.823 128.859 152.496C128.584 152.64 128.269 152.704 127.955 152.679C127.641 152.654 127.342 152.542 127.097 152.356C126.532 151.901 126.241 150.975 126.378 149.742C126.627 147.544 128.132 145.214 129.749 144.541C130.115 144.37 130.532 144.319 130.933 144.397C131.869 144.611 132.409 145.701 132.23 147.299Z" fill="#FAFAFA"/>
<path d="M131.652 147.035C131.407 149.229 129.898 151.559 128.282 152.232C127.915 152.402 127.498 152.453 127.097 152.376C126.532 151.92 126.241 150.995 126.378 149.762C126.627 147.564 128.132 145.234 129.749 144.561C130.115 144.389 130.532 144.339 130.933 144.417C131.511 144.857 131.79 145.786 131.652 147.035Z" fill="#E0E0E0"/>
<path d="M139.479 143.021C139.479 148.731 136.091 155.343 131.557 159C134.242 156.277 137.027 151.683 138.008 147.311C138.868 143.495 138.548 138.014 135.044 136.63C131.54 135.245 126.918 138.162 125.455 139.492C126.571 138.327 127.868 137.326 129.304 136.525C134.923 133.491 139.479 136.396 139.479 143.021Z" fill="#455A64"/>
<path d="M139.691 119.156C139.691 119.156 136.582 119.366 135.393 119.732C134.329 120.059 123.069 119.732 111.93 115.158C105.28 112.435 100.197 110.175 94.5274 105.612C87.1332 99.6685 86.1523 95.6853 85.4083 94.075C82.3491 96.1093 78.2177 98.9178 75.8485 100.633C70.3953 104.877 63.7575 111.136 61.1307 118.087C60.952 118.557 60.7899 119.032 60.6527 119.507C56.7665 132.759 60.0958 137.641 63.4292 141.678C64.8465 143.402 68.7826 146.755 73.6914 149.493C77.7217 151.708 81.885 153.705 86.1606 155.472C88.6735 156.512 91.2837 157.334 93.958 157.926C107.45 160.711 116.502 155.406 116.502 155.406C116.433 154.704 116.441 153.997 116.527 153.297C116.642 152.358 116.821 151.426 117.063 150.508C117.691 148.135 118.648 145.849 119.911 143.709C121.835 140.43 124.408 137.555 127.272 135.696C127.646 135.447 128.028 135.221 128.41 135.015C134.603 131.666 139.708 134.362 140.364 141.009C140.414 141.492 140.406 141.986 140.406 142.507L140.726 136.396L140.435 120.102C140.435 120.102 139.466 119.942 139.691 119.156Z" fill="#F7B731"/>
<path opacity="0.2" d="M85.4415 98.8751C93.6795 110.572 110.035 118.892 128.589 122.214C129.716 122.416 130.164 123.354 129.204 123.941C127.496 124.984 124.611 125.544 120.958 124.886C104.258 120.312 92.6945 114.384 84.8264 105.9C84.0741 105.087 83.0516 103.625 82.7482 102.586C82.3325 101.127 82.3907 99.7153 82.9477 98.6417C83.4631 97.6654 84.8098 97.9766 85.4415 98.8751Z" fill="black"/>
<path d="M77.5402 133.238C79.4314 134.167 82.8812 131.044 84.6061 129.791C86.331 128.539 82.3741 125.225 80.1795 125.715C77.1038 126.419 75.8694 132.413 77.5402 133.238Z" fill="#455A64"/>
<path d="M86.1565 155.487C87.7531 156.152 89.3909 156.726 91.061 157.207C89.0452 156.456 90.7451 152.722 89.2322 151.333C87.6486 149.882 82.582 147.673 76.4471 144.359C70.3123 141.044 66.1766 137.45 65.2248 138.563C63.5623 140.558 62.228 140.189 62.2197 140.185C62.6104 140.71 63.0094 141.208 63.4085 141.694C64.8258 143.417 68.7619 146.77 73.6706 149.509C77.7063 151.724 81.8752 153.721 86.1565 155.487Z" fill="#455A64"/>
<g opacity="0.2">
<path d="M83.9744 95.0437C80.5495 98.3073 77.4363 101.89 75.1004 105.9C72.7374 109.888 71.1381 114.233 70.3746 118.737C69.9576 120.974 69.7628 123.242 69.7927 125.513C69.809 127.766 70.28 129.996 71.1809 132.086C71.2847 132.347 71.4083 132.601 71.5509 132.845C71.6922 133.094 71.821 133.343 71.9665 133.584C72.271 134.062 72.6084 134.52 72.9765 134.957C73.3401 135.401 73.733 135.823 74.1528 136.221C74.5874 136.601 75.0439 136.958 75.5202 137.291C76.4949 137.949 77.5265 138.529 78.6043 139.026C79.6849 139.54 80.795 139.999 81.9294 140.399C82.4864 140.613 83.0641 140.765 83.6377 140.936C83.9245 141.013 84.2154 141.076 84.5064 141.146L84.9428 141.247L85.3834 141.317C86.5578 141.529 87.7544 141.614 88.9496 141.57C91.3569 141.448 93.7275 140.963 95.9698 140.134C97.1003 139.745 98.2184 139.286 99.3489 138.831L102.732 137.493C104.993 136.606 107.279 135.766 109.599 135.012C111.918 134.257 114.25 133.549 116.59 132.876C118.93 132.203 121.274 131.573 123.527 130.694C125.795 129.86 127.939 128.756 129.907 127.411C131.881 126.053 133.515 124.309 134.695 122.3C133.586 124.365 131.997 126.171 130.044 127.586C128.091 128.992 125.954 130.158 123.685 131.056C121.415 131.931 119.1 132.699 116.748 133.354C114.42 134.062 112.105 134.79 109.815 135.583C107.525 136.377 105.243 137.236 103.011 138.123L99.6399 139.477C98.5218 139.932 97.3912 140.395 96.2358 140.807C93.92 141.676 91.4693 142.188 88.9787 142.324C87.7259 142.375 86.4709 142.293 85.2379 142.079L84.7765 142.005L84.3193 141.9C84.0159 141.83 83.7125 141.768 83.4091 141.69C82.8147 141.511 82.212 141.356 81.6385 141.138C80.4799 140.723 79.3476 140.246 78.2468 139.71C77.1306 139.191 76.064 138.584 75.0589 137.894C74.5555 137.541 74.074 137.162 73.6166 136.758C73.1726 136.34 72.7562 135.897 72.3697 135.432C71.9843 134.966 71.6303 134.479 71.3098 133.973C71.156 133.716 71.0188 133.452 70.8942 133.195C70.7454 132.936 70.6149 132.668 70.5035 132.394C69.5808 130.218 69.1029 127.9 69.0944 125.559C69.0635 123.238 69.2821 120.92 69.747 118.639C70.5882 114.087 72.2763 109.708 74.7347 105.702C77.2523 101.753 80.3641 98.1632 83.9744 95.0437Z" fill="black"/>
</g>
<path opacity="0.5" d="M101.88 111.603C101.88 111.603 89.4109 105.079 84.8014 94.7869C84.8014 94.7869 79.4646 99.4897 76.1519 105.721C73.8983 109.974 72.2628 114.49 71.2889 119.149C71.2889 119.149 74.0488 109.136 78.7497 102.979C83.1596 97.1985 84.232 95.7788 86.7632 99.5636C88.7001 102.469 94.968 109.494 101.88 111.603Z" fill="white"/>
<path opacity="0.5" d="M121.232 130.737C118.14 131.448 112.3 132.806 107.45 134.626C102.599 136.447 96.4768 139.998 90.1466 140.652C83.8164 141.305 77.4779 137.758 77.4779 137.758C77.4779 137.758 83.9702 140.558 89.9721 139.788C95.9739 139.018 101.76 135.595 107.732 133.611C113.705 131.627 121.232 130.737 121.232 130.737Z" fill="white"/>
<path d="M112.762 149.828C112.171 149.75 110.683 150.12 108.19 150.793C105.696 151.465 105.085 151.528 104.158 152.127C103.372 152.632 101.277 154.231 100.267 154.717C98.663 155.495 100.267 156.052 104.752 156.055C109.237 156.059 110.754 154.803 111.785 153.515C112.816 152.228 114.108 150.003 112.762 149.828Z" fill="#455A64"/>
<path d="M60.1498 127.022C60.0162 127.782 59.933 128.55 59.9004 129.32C59.8733 130.84 60.1862 132.348 60.819 133.747C61.0143 134.175 61.3552 134.661 61.8539 134.618C62.0493 134.599 61.6378 128.227 61.5422 127.617C61.4466 127.006 61.3718 126.473 61.2845 125.901C61.2513 125.691 61.1681 125.431 60.9437 125.411C60.5696 125.365 60.3161 126.142 60.1498 127.022Z" fill="#455A64"/>
<path d="M67.2615 121.405C67.7103 119.623 67.6771 116.663 67.7602 114.843C67.7873 113.125 68.0003 111.413 68.3962 109.735C68.6331 108.6 68.8118 107.666 68.4377 107.261C65.3495 110.498 62.6188 114.189 61.1266 118.087C60.9479 118.557 60.7858 119.032 60.6486 119.507C60.5115 119.981 60.3909 120.409 60.2704 120.849C60.5572 122.21 61.8498 124.081 63.5539 124.248C65.5241 124.435 66.8084 123.19 67.2615 121.405Z" fill="#455A64"/>
<path d="M66.5091 108.137C66.8374 107.885 67.2587 107.765 67.6812 107.802C68.0969 107.857 67.9182 108.448 67.8267 108.697C67.6646 109.14 67.5067 109.588 67.3446 110.035C67.224 110.362 67.1534 110.778 66.692 110.813C66.1226 110.836 65.8233 110.198 65.7236 109.767C65.6827 109.454 65.7343 109.136 65.8728 108.849C66.0113 108.561 66.2314 108.315 66.5091 108.137Z" fill="#F7B731"/>
<path opacity="0.65" d="M66.5091 108.137C66.8374 107.885 67.2587 107.765 67.6812 107.802C68.0969 107.857 67.9182 108.448 67.8267 108.697C67.6646 109.14 67.5067 109.588 67.3446 110.035C67.224 110.362 67.1534 110.778 66.692 110.813C66.1226 110.836 65.8233 110.198 65.7236 109.767C65.6827 109.454 65.7343 109.136 65.8728 108.849C66.0113 108.561 66.2314 108.315 66.5091 108.137Z" fill="white"/>
<path d="M62.5813 123.054C62.9734 123.307 63.4511 123.416 63.9234 123.36C64.3956 123.304 64.8293 123.087 65.1417 122.751C65.6493 122.254 66.0215 121.649 66.2265 120.989C67.2365 118.176 66.7544 115.111 66.2265 112.186C66.199 111.845 66.0646 111.519 65.84 111.249C65.0752 110.498 63.7368 111.848 63.2505 112.326C62.4631 113.103 61.831 114.005 61.3843 114.991C60.7733 116.34 60.1997 118.309 60.5198 119.787C60.7816 120.942 61.4716 122.401 62.5813 123.054Z" fill="#F7B731"/>
<path opacity="0.65" d="M62.5813 123.054C62.9734 123.307 63.4511 123.416 63.9234 123.36C64.3956 123.304 64.8293 123.087 65.1417 122.751C65.6493 122.254 66.0215 121.649 66.2265 120.989C67.2365 118.176 66.7544 115.111 66.2265 112.186C66.199 111.845 66.0646 111.519 65.84 111.249C65.0752 110.498 63.7368 111.848 63.2505 112.326C62.4631 113.103 61.831 114.005 61.3843 114.991C60.7733 116.34 60.1997 118.309 60.5198 119.787C60.7816 120.942 61.4716 122.401 62.5813 123.054Z" fill="white"/>
<path opacity="0.45" d="M63.5331 113.407C62.9528 114.065 62.615 114.88 62.5701 115.732C62.5251 116.583 62.7755 117.426 63.2837 118.134C63.3758 118.283 63.5003 118.412 63.6493 118.513C63.7982 118.614 63.9682 118.685 64.1482 118.721C64.339 118.729 64.5284 118.687 64.6951 118.6C64.8618 118.512 64.9991 118.383 65.0917 118.227C65.2739 117.912 65.3817 117.565 65.4076 117.208C65.5282 116.116 65.5532 115.017 65.4824 113.921C65.4242 112.571 64.3768 112.497 63.5331 113.407Z" fill="white"/>
<path d="M102.832 139.621C104.91 137.975 108.119 136.575 113.477 136.081C118.244 135.645 122.492 133.596 122.621 135.824C122.749 138.053 118.967 144.748 112.03 146.996C106.049 148.941 102.242 147.42 100.966 145.537C99.6897 143.655 100.783 141.266 102.832 139.621Z" fill="#455A64"/>
<path d="M119.308 138.641C120.206 138.87 120.817 138.485 121.191 137.738C121.457 137.198 121.685 136.4 120.958 136.112C119.948 135.723 118.58 136.034 117.633 136.462C115.75 137.31 118.427 138.419 119.308 138.641Z" fill="#F7B731"/>
<path opacity="0.65" d="M119.308 138.641C120.206 138.87 120.817 138.485 121.191 137.738C121.457 137.198 121.685 136.4 120.958 136.112C119.948 135.723 118.58 136.034 117.633 136.462C115.75 137.31 118.427 138.419 119.308 138.641Z" fill="white"/>
<path d="M116.964 141.679C117.566 140.663 117.895 139.5 117.051 138.683C116.207 137.867 114.557 137.606 113.389 137.516C109.796 137.214 106.221 138.253 103.443 140.407C102.793 140.88 102.248 141.468 101.839 142.138C101.636 142.472 101.506 142.841 101.456 143.223C101.406 143.605 101.437 143.992 101.548 144.363C102.732 147.774 108.368 147.249 111.107 146.28C112.896 145.646 114.489 144.608 115.746 143.258C116.21 142.773 116.618 142.243 116.964 141.679Z" fill="#F7B731"/>
<path opacity="0.65" d="M116.964 141.679C117.566 140.663 117.895 139.5 117.051 138.683C116.207 137.867 114.557 137.606 113.389 137.516C109.796 137.214 106.221 138.253 103.443 140.407C102.793 140.88 102.248 141.468 101.839 142.138C101.636 142.472 101.506 142.841 101.456 143.223C101.406 143.605 101.437 143.992 101.548 144.363C102.732 147.774 108.368 147.249 111.107 146.28C112.896 145.646 114.489 144.608 115.746 143.258C116.21 142.773 116.618 142.243 116.964 141.679Z" fill="white"/>
<path opacity="0.45" d="M110.559 138.291C109.777 138.435 109.012 138.653 108.277 138.94C107.446 139.259 106.614 139.901 106.697 140.729C106.872 142.511 110.471 143.347 112.013 143.281C112.809 143.262 113.586 143.049 114.267 142.663C114.948 142.277 115.509 141.731 115.896 141.08C117.612 137.835 112.333 138.014 110.559 138.291Z" fill="white"/>
<path d="M102.175 75.4233C94.9099 81.2581 91.007 85.5368 85.5704 92.663C84.4815 94.4251 87.7858 101.127 94.3197 106.079C112.001 119.491 134.063 122.086 136.299 119.923C139.446 109.459 142.704 103.267 145.788 98.6922C140.493 95.3936 108.447 77.0182 102.175 75.4233ZM134.944 118.752C134.909 118.872 134.83 118.977 134.72 119.048C134.611 119.119 134.478 119.152 134.346 119.141C128.797 119.141 111.901 117.021 95.8825 105.6C87.4533 99.5985 87.0377 93.5965 86.8963 93.1259C91.1691 86.9761 94.9265 83.1913 101.323 77.7572C101.643 77.4871 102.04 77.3092 102.465 77.245C102.891 77.1808 103.327 77.2331 103.721 77.3955C112.496 80.9819 131.569 91.2276 141.736 98.0932C142.182 98.3935 142.495 98.8367 142.615 99.3385C142.735 99.8404 142.655 100.366 142.389 100.816C138.432 107.503 136.985 112.089 134.944 118.752Z" fill="#37474F"/>
<path opacity="0.5" d="M134.944 118.752C134.909 118.872 134.83 118.977 134.72 119.048C134.611 119.119 134.478 119.152 134.346 119.141C128.797 119.141 111.901 117.021 95.8824 105.601C87.4532 99.5987 87.0376 93.5967 86.8962 93.126C91.169 86.9762 94.9264 83.1915 101.323 77.7574C101.643 77.4872 102.04 77.3093 102.465 77.2452C102.891 77.181 103.327 77.2332 103.721 77.3956C112.496 80.982 131.569 91.2278 141.736 98.0933C142.182 98.3937 142.495 98.8368 142.615 99.3387C142.735 99.8405 142.655 100.366 142.388 100.816C138.432 107.503 136.985 112.089 134.944 118.752Z" fill="black"/>
<path d="M146.138 120.386C145.364 123.82 141.304 124.544 138.261 124.458C136.648 124.415 135.323 124.139 134.936 123.921C133.76 123.287 134.304 121.977 134.936 121.199C136 119.907 140.784 117.309 143.785 117.227C145.522 117.177 146.674 117.978 146.138 120.386Z" fill="#F7B731"/>
<path opacity="0.3" d="M146.138 120.386C145.364 123.82 141.304 124.544 138.261 124.458C136.648 124.415 135.323 124.139 134.936 123.921C133.76 123.287 134.304 121.977 134.936 121.199C136 119.907 140.784 117.309 143.785 117.227C145.522 117.177 146.674 117.978 146.138 120.386Z" fill="black"/>
<path d="M146.138 120.386C145.364 123.82 141.304 124.544 138.261 124.458C136.648 124.415 135.323 124.139 134.936 123.921C133.76 123.287 134.304 121.977 134.936 121.199C134.342 122.245 137.476 122.895 140.269 121.957C143.062 121.02 145.14 118.997 143.785 117.227C145.522 117.177 146.674 117.978 146.138 120.386Z" fill="#F7B731"/>
<path opacity="0.35" d="M146.138 120.386C145.364 123.82 141.304 124.544 138.261 124.458C136.648 124.415 135.323 124.139 134.936 123.921C133.76 123.287 134.304 121.977 134.936 121.199C134.342 122.245 137.476 122.895 140.269 121.957C143.062 121.02 145.14 118.997 143.785 117.227C145.522 117.177 146.674 117.978 146.138 120.386Z" fill="black"/>
<path d="M146.138 120.386C145.364 123.82 141.304 124.544 138.261 124.458C141.291 124.377 143.702 122.743 144.616 120.958C145.531 119.172 144.832 117.457 143.785 117.231C145.522 117.177 146.674 117.978 146.138 120.386Z" fill="#37474F"/>
<path d="M35.4192 72.1247C35.2892 72.0455 35.1434 71.9915 34.9906 71.9661C34.8378 71.9407 34.681 71.9444 34.5298 71.9769C34.5298 71.9769 34.3261 72.082 34.2056 72.1598C33.8437 72.4115 33.5767 72.7644 33.4434 73.1675C33.3101 73.5707 33.3174 74.003 33.4641 74.402C33.6109 74.8011 33.8895 75.146 34.2597 75.387C34.6299 75.6279 35.0724 75.7523 35.5232 75.7423C35.8333 75.7364 36.1378 75.6631 36.4126 75.5283L36.6994 75.3727C36.8051 75.2612 36.8849 75.1303 36.9335 74.9883C36.9822 74.8463 36.9987 74.6964 36.9821 74.5481C36.9403 74.0584 36.7773 73.5845 36.5061 73.1639C36.2349 72.7433 35.8628 72.3875 35.4192 72.1247Z" fill="#F7B731"/>
<path d="M80.537 130.491C80.0008 131.184 79.1737 131.522 78.8079 131.269C78.6197 131.154 78.4586 131.004 78.3341 130.829C78.2096 130.653 78.1245 130.456 78.0838 130.249C78.0431 130.042 78.0478 129.829 78.0975 129.624C78.1471 129.419 78.2408 129.225 78.3729 129.055C78.5049 128.884 78.6725 128.741 78.8655 128.632C79.0586 128.524 79.2731 128.454 79.496 128.426C79.7189 128.398 79.9456 128.412 80.1624 128.468C80.3792 128.524 80.5816 128.621 80.7573 128.753C81.069 129.029 81.0773 129.795 80.537 130.491Z" fill="#263238"/>
<path d="M56.7415 163.539C54.3087 163.508 51.9281 162.875 49.8419 161.703C47.2691 160.315 45.6855 158.381 45.1327 155.958C44.2765 152.204 46.1552 148.05 48.0214 145.63L48.5534 144.946C51.8494 140.69 53.6658 138.333 53.0215 135.918C52.2526 133.008 42.0154 133.401 31.2628 134.179L28.3533 134.389C21.4204 134.875 11.1582 133.735 10.1815 130.768C9.8074 129.636 10.726 128.461 12.9164 127.267C21.3664 122.712 28.6692 118.771 28.6692 110.284C28.6692 100.046 28.5943 94.5845 28.5362 90.6013C28.5071 88.3647 28.4821 85.1556 28.4821 83.2885C28.4821 78.0139 33.9353 74.1825 34.1681 74.023C34.2568 73.9611 34.3682 73.9347 34.4777 73.9496C34.5872 73.9646 34.6859 74.0197 34.7521 74.1027C34.8182 74.1858 34.8464 74.29 34.8304 74.3925C34.8144 74.495 34.7556 74.5873 34.6669 74.6492C34.617 74.6842 29.3217 78.4107 29.3217 83.2885C29.3217 85.14 29.3467 88.3453 29.3758 90.5897C29.4339 94.5767 29.5088 100.038 29.5088 110.284C29.5088 119.23 21.6615 123.462 13.3487 127.951C12.1017 128.624 10.6886 129.616 10.992 130.538C11.6778 132.619 20.4145 134.167 28.3076 133.611L31.217 133.405C42.4393 132.592 52.9093 132.183 53.8487 135.739C54.5844 138.52 52.689 140.967 49.2475 145.409L48.7155 146.097C46.949 148.384 45.1659 152.298 45.964 155.802C46.4669 158.004 47.9175 159.766 50.2783 161.038C55.5694 163.897 60.6278 162.847 63.292 160.536C65.5365 158.591 66.5382 155.479 66.5382 150.423C66.5382 149.645 66.5382 148.816 66.5382 147.98C66.5091 144.627 66.48 141.161 66.8665 138.111C67.2822 134.72 68.7909 131.969 71.0603 130.363C73.1136 128.912 75.7363 128.418 78.8536 128.877C78.9082 128.885 78.9605 128.903 79.0076 128.931C79.0547 128.958 79.0956 128.993 79.128 129.035C79.1604 129.077 79.1837 129.124 79.1965 129.175C79.2094 129.225 79.2115 129.277 79.2027 129.328C79.194 129.379 79.1746 129.428 79.1457 129.472C79.1167 129.516 79.0788 129.555 79.034 129.585C78.9892 129.615 78.9385 129.637 78.8847 129.649C78.8309 129.661 78.7752 129.663 78.7206 129.655C75.8361 129.223 73.4295 129.674 71.5633 130.997C68.7411 132.989 67.9264 136.373 67.6937 138.213C67.3113 141.216 67.3404 144.658 67.3694 147.988C67.3694 148.824 67.3694 149.645 67.3694 150.434C67.3694 155.717 66.2846 159.011 63.8573 161.116C61.8925 162.728 59.3538 163.592 56.7415 163.539Z" fill="#37474F"/>
<path d="M121.561 56.2312L119.217 52.1235L121.104 47.0279V43.916L115.33 47.0279V50.1397L117.824 54.1618C117.862 54.2251 117.923 54.2744 117.995 54.3018L121.561 56.2312Z" fill="#F7B731"/>
<path opacity="0.2" d="M121.561 56.2312L119.217 52.1235L121.104 47.0279V43.916L115.33 47.0279V50.1397L117.824 54.1618C117.862 54.2251 117.923 54.2744 117.995 54.3018L121.561 56.2312Z" fill="black"/>
<path d="M135.348 19.0912C135.315 18.5288 135.142 17.9815 134.842 17.4935C134.541 17.0055 134.122 16.5907 133.618 16.2828L132.209 15.5048C131.672 15.2517 131.08 15.1199 130.478 15.1199C129.877 15.1199 129.284 15.2517 128.747 15.5048L107.134 27.2287C106.63 27.5365 106.21 27.9511 105.909 28.4391C105.608 28.927 105.433 29.4745 105.401 30.0371V52.2907C105.433 52.8534 105.608 53.4008 105.909 53.8888C106.21 54.3767 106.63 54.7914 107.134 55.0992L108.543 55.8771C109.079 56.1323 109.672 56.2653 110.274 56.2653C110.876 56.2653 111.469 56.1323 112.005 55.8771L118.955 52.1196L121.449 56.1339C121.484 56.1912 121.536 56.2378 121.599 56.2682C121.662 56.2985 121.733 56.3114 121.803 56.3053C121.874 56.2991 121.941 56.2742 121.996 56.2335C122.052 56.1928 122.094 56.138 122.118 56.0755L124.736 49.0038L133.635 44.1805C134.139 43.8727 134.559 43.458 134.86 42.9701C135.161 42.4821 135.335 41.9347 135.368 41.372L135.348 19.0912Z" fill="#F7B731"/>
<path opacity="0.2" d="M105.401 52.283C105.433 52.8456 105.608 53.3931 105.909 53.881C106.21 54.369 106.63 54.7836 107.134 55.0914L108.543 55.8694C109.031 56.0995 109.565 56.2302 110.111 56.253C110.657 56.2758 111.202 56.1901 111.71 56.0016C110.879 56.2895 110.272 55.8577 110.272 54.9358V32.6744C110.293 32.1111 110.468 31.5622 110.779 31.0796L105.908 28.4307C105.597 28.9148 105.422 29.4649 105.401 30.0294V52.283Z" fill="black"/>
<path opacity="0.5" d="M135.293 18.6285C135.09 17.94 134.421 17.7221 133.631 18.1539L112.018 29.8544C111.504 30.1502 111.082 30.5675 110.796 31.0642L105.916 28.4347C106.203 27.9404 106.623 27.5248 107.134 27.2288L128.747 15.5283C129.285 15.2751 129.878 15.1433 130.48 15.1433C131.082 15.1433 131.676 15.2751 132.214 15.5283L133.627 16.3062C134.057 16.5687 134.426 16.9096 134.713 17.3086C134.999 17.7076 135.197 18.1565 135.293 18.6285Z" fill="white"/>
<path d="M132.268 25.4004C130.846 28.5122 132.6 33.3045 131.349 37.1282C130.098 40.9518 127.833 42.6322 125.385 42.3366C125.098 38.0578 126.532 33.6779 128.901 30.0798C126.644 32.2231 123.614 35.7862 124.262 42.2083C122.4 41.4536 120.696 38.0578 122.683 33.8841C125.41 28.1466 132.268 25.4004 132.268 25.4004Z" fill="white"/>
<path d="M117.317 30.2356L112.994 40.9637L116.706 41.5588L115.551 50.1942L120.052 39.0888L116.349 38.3342L117.317 30.2356Z" fill="white"/>
</g>
<defs>
<filter id="filter0_d_500_1551" x="0.927246" y="15.1199" width="206.708" height="176.646" filterUnits="userSpaceOnUse" color-interpolation-filters="sRGB">
<feFlood flood-opacity="0" result="BackgroundImageFix"/>
<feColorMatrix in="SourceAlpha" type="matrix" values="0 0 0 0 0 0 0 0 0 0 0 0 0 0 0 0 0 0 127 0" result="hardAlpha"/>
<feOffset dy="4"/>
<feGaussianBlur stdDeviation="2"/>
<feComposite in2="hardAlpha" operator="out"/>
<feColorMatrix type="matrix" values="0 0 0 0 0 0 0 0 0 0 0 0 0 0 0 0 0 0 0.25 0"/>
<feBlend mode="normal" in2="BackgroundImageFix" result="effect1_dropShadow_500_1551"/>
<feBlend mode="normal" in="SourceGraphic" in2="effect1_dropShadow_500_1551" result="shape"/>
</filter>
</defs>
</svg>
