<svg width="288" height="177" viewBox="0 0 288 177" fill="none" xmlns="http://www.w3.org/2000/svg">
<path d="M274.147 64.4093C274.661 64.9779 275.055 65.6442 275.306 66.3684C275.556 67.0925 275.659 67.8598 275.607 68.6244C275.492 70.155 275.027 71.6388 274.248 72.9611C272.822 75.5531 270.154 77.6585 267.596 79.1474C266.128 76.2115 267.034 72.5081 267.596 70.6627C268.506 67.7268 271.928 63.0168 274.13 64.4093" fill="#EBEBEB"/>
<path d="M268.414 84.7255C268.577 83.8846 268.96 83.1017 269.523 82.4565C270.087 81.8112 270.811 81.3265 271.622 81.0515C272.436 80.7886 273.295 80.6903 274.147 80.7623C275 80.8343 275.829 81.0752 276.588 81.4709C277.293 81.8232 277.989 82.36 278.161 83.1485C278.216 83.5141 278.174 83.8877 278.038 84.2317C277.903 84.5757 277.679 84.8777 277.389 85.1072C276.801 85.5608 276.104 85.8503 275.367 85.946C272.851 86.3654 270.381 86.3319 268.414 84.7381" fill="#EBEBEB"/>
<path d="M262.055 91.8513C262.144 91.668 262.247 91.4926 262.366 91.3271L263.263 89.9346C264.035 88.777 265.1 87.1036 266.803 85.7405C268.229 84.559 269.945 83.78 271.773 83.4841C272.329 83.4025 272.892 83.3885 273.451 83.4421C273.601 83.4542 273.751 83.4752 273.9 83.505C274.004 83.505 274.055 83.5344 274.055 83.5428C273.304 83.4977 272.551 83.5286 271.807 83.6351C270.013 83.9773 268.336 84.7696 266.933 85.9376C265.255 87.2588 264.19 88.8987 263.389 90.0353C262.991 90.6099 262.668 91.0754 262.433 91.39C262.323 91.5558 262.196 91.7104 262.055 91.8513Z" fill="#E0E0E0"/>
<path d="M271.857 68.2385C271.839 68.3257 271.814 68.4112 271.781 68.4943L271.538 69.2115C271.32 69.8364 270.993 70.7298 270.582 71.8328C269.743 74.0389 268.573 77.0713 267.193 80.3888C265.813 83.7064 264.496 86.68 263.511 88.8274C263.02 89.8969 262.613 90.7567 262.328 91.3438C262.19 91.6206 262.076 91.8471 261.992 92.0233C261.956 92.1041 261.913 92.1813 261.862 92.254C261.882 92.1684 261.912 92.0854 261.95 92.0065C262.03 91.8262 262.127 91.5871 262.252 91.3061L263.372 88.7561C264.32 86.6003 265.616 83.6183 266.996 80.3007C268.376 76.9832 269.58 73.9634 270.439 71.7699L271.459 69.1737C271.576 68.8886 271.668 68.6537 271.744 68.4733C271.773 68.3911 271.811 68.3123 271.857 68.2385Z" fill="#E0E0E0"/>
<path d="M263.775 84.7549C264.177 82.9932 264.153 81.161 263.705 79.4104C263.257 77.6597 262.398 76.0412 261.2 74.689C260.587 74.0054 259.686 73.3595 258.822 73.6699C257.958 73.9802 257.681 75.0581 257.664 75.9766C257.662 77.8936 258.227 79.7684 259.288 81.3648C260.35 82.9612 261.86 84.2079 263.628 84.9478" fill="#EBEBEB"/>
<path d="M260.533 77.4278C260.681 77.5521 260.815 77.6928 260.931 77.8472C261.083 78.0091 261.223 78.1815 261.351 78.3631C261.506 78.577 261.699 78.8035 261.871 79.0887C262.07 79.3892 262.253 79.7 262.42 80.0198C262.619 80.3824 262.797 80.7563 262.953 81.1396C263.311 82.0219 263.567 82.9422 263.716 83.8825C263.851 84.8243 263.876 85.7785 263.792 86.7261C263.753 87.1392 263.69 87.5495 263.603 87.955C263.534 88.3098 263.443 88.6599 263.33 89.0035C263.246 89.2883 263.147 89.5683 263.033 89.8424C262.954 90.0526 262.862 90.2572 262.756 90.4547C262.682 90.6311 262.59 90.7997 262.483 90.958C262.437 90.958 262.827 90.2156 263.188 88.9574C263.286 88.6167 263.366 88.2709 263.427 87.9215C263.505 87.5208 263.561 87.1161 263.595 86.7094C263.668 85.7765 263.639 84.8383 263.506 83.9119C263.357 82.9897 263.111 82.0858 262.773 81.2151C262.605 80.8166 262.45 80.4392 262.265 80.0994C262.106 79.7803 261.931 79.4695 261.741 79.1684C261.036 78.0527 260.474 77.4572 260.533 77.4278Z" fill="#E0E0E0"/>
<path d="M13.5247 38.2673C13.5247 38.2673 9.66612 39.5255 13.4073 47.7879C17.1484 56.0504 19.8201 60.1941 19.8201 60.1941C19.8201 60.1941 20.4618 62.1025 18.868 62.3206C17.2742 62.5387 13.8351 61.8215 13.0298 63.7214C12.191 65.6884 13.575 67.6471 16.448 69.4464C19.321 71.2456 25.4737 75.4104 26.0274 75.7879C26.581 76.1653 27.0927 77.0461 26.0274 77.3816C24.9621 77.7171 17.1065 78.1533 17.5427 81.8693C17.9789 85.5853 26.8117 89.2929 27.7595 89.7123C28.7074 90.1317 28.9297 90.5511 28.8248 91.088C28.72 91.6248 26.0651 91.5074 23.8338 91.7423C21.6026 91.9771 19.0567 92.6063 19.4887 94.7285C19.9207 96.8507 25.0334 101.51 37.8925 103.381L43.9069 103.859L47.4215 98.9226C54.3083 87.9046 54.0566 80.9927 52.7187 79.2899C51.3808 77.5871 49.2376 79.1138 47.6312 80.674C46.0249 82.2342 44.3766 84.3229 43.9069 84.0586C43.4371 83.7944 43.2484 83.3582 43.542 82.3558C43.8356 81.3534 46.7337 72.2312 44.1795 69.4967C41.6253 66.7621 36.2107 72.4661 35.2712 73.0701C34.3317 73.674 33.992 72.6926 34.0591 72.0341C34.1262 71.3756 34.9231 63.9814 35.4096 60.6261C35.8961 57.2708 35.288 54.9641 33.2538 54.335C31.291 53.7142 29.6049 56.8095 28.4096 57.8832C27.2143 58.9569 26.1742 57.2331 26.1742 57.2331C26.1742 57.2331 24.744 52.5273 20.8518 44.3236C16.9597 36.1199 13.4408 38.3302 13.4408 38.3302" fill="#EBEBEB"/>
<path d="M44.1585 105.281C41.3233 99.2414 36.4665 88.4289 32.2472 79.1683C28.0279 69.9077 24.2029 61.5279 21.3971 55.48L18.0711 48.3164L17.1694 46.3704L16.9387 45.8587C16.9071 45.7989 16.879 45.7373 16.8548 45.6741C16.8548 45.6741 16.8884 45.7287 16.9471 45.8419L17.1946 46.3452C17.4085 46.794 17.723 47.4441 18.1298 48.2787C18.9393 49.9563 20.0927 52.3931 21.5103 55.4087C24.3455 61.444 28.1915 69.8155 32.415 79.0761C36.6385 88.3367 41.4743 99.1743 44.2801 105.231" fill="#E0E0E0"/>
<path d="M17.8195 64.9167C17.9634 64.9494 18.1038 64.9958 18.2389 65.0552C18.4989 65.1516 18.8764 65.3068 19.3377 65.4997C20.2605 65.8898 21.5229 66.4602 22.9069 67.1145L26.4384 68.7921L27.5121 69.2954C27.6469 69.3499 27.7761 69.4173 27.8979 69.4967C27.7531 69.4697 27.6121 69.4247 27.4785 69.3625C27.2143 69.266 26.841 69.1109 26.3797 68.9137C25.457 68.4943 24.2029 67.9281 22.8231 67.2738L19.279 65.5962L18.2053 65.0971C18.0703 65.0517 17.9409 64.9912 17.8195 64.9167Z" fill="#E0E0E0"/>
<path d="M28.3215 69.1612C28.2754 69.1612 29.3365 66.4854 30.6912 63.2349C32.0459 59.9845 33.2077 57.3632 33.2329 57.3632C33.258 57.3632 32.2221 60.039 30.8632 63.2936C29.5043 66.5483 28.3719 69.1612 28.3215 69.1612Z" fill="#E0E0E0"/>
<path d="M34.1597 83.6518C34.235 83.524 34.3235 83.4045 34.424 83.2953C34.6253 83.0395 34.8811 82.7249 35.1831 82.3516C35.8206 81.5547 36.7014 80.4475 37.6283 79.1935C38.5552 77.9394 39.3563 76.7818 39.9308 75.9346L40.6103 74.9322C40.6872 74.8056 40.7757 74.6862 40.8745 74.5757C40.8241 74.7158 40.755 74.8484 40.669 74.97C40.5264 75.2216 40.3125 75.5739 40.0399 76.0059C39.4947 76.8741 38.7104 78.0527 37.7751 79.3067C36.8398 80.5607 35.9506 81.6596 35.2838 82.4355C34.9482 82.8214 34.6756 83.1317 34.4785 83.3414C34.3853 83.4575 34.2783 83.5617 34.1597 83.6518Z" fill="#E0E0E0"/>
<path d="M23.8171 81.9281C23.9574 81.9188 24.0983 81.9273 24.2365 81.9532L25.3479 82.0916C26.2832 82.2216 27.575 82.4104 29.001 82.6285C30.427 82.8466 31.7146 83.0479 32.6457 83.2156L33.7487 83.417C33.885 83.4327 34.0188 83.4651 34.1472 83.5134C34.0069 83.5226 33.866 83.5142 33.7278 83.4883L32.6205 83.3499C31.681 83.2198 30.3892 83.0311 28.9632 82.813C27.5372 82.5949 26.2496 82.3936 25.3186 82.2258L24.2197 82.0245C24.0823 82.0074 23.9473 81.9751 23.8171 81.9281Z" fill="#E0E0E0"/>
<path d="M27.3401 95.3954C27.5157 95.391 27.6913 95.4036 27.8644 95.4331L29.2904 95.6093C30.4899 95.7645 32.1466 95.991 33.9752 96.2552C35.8038 96.5194 37.4605 96.7669 38.6558 96.9598L40.0734 97.1905C40.2482 97.2144 40.4207 97.2522 40.5893 97.3037C40.4124 97.3082 40.2354 97.2955 40.0609 97.266L38.6391 97.0898C37.4395 96.9346 35.7787 96.7039 33.95 96.4397C32.1214 96.1755 30.4647 95.928 29.2694 95.7393L27.856 95.5044C27.681 95.4843 27.5083 95.4478 27.3401 95.3954Z" fill="#E0E0E0"/>
<path d="M40.2873 97.1694C40.381 97.005 40.4891 96.8492 40.6103 96.7039C40.8452 96.3851 41.1555 95.9741 41.5288 95.475C42.3047 94.4349 43.37 92.9963 44.5024 91.3732C45.6348 89.7501 46.6247 88.257 47.3293 87.1791L48.1681 85.8915C48.2631 85.7292 48.3711 85.5749 48.491 85.4301C48.4177 85.6039 48.3293 85.7709 48.2268 85.9292C48.0465 86.2438 47.778 86.6967 47.4383 87.2462C46.7589 88.3534 45.7858 89.8633 44.6492 91.4864C43.5126 93.1095 42.4347 94.5439 41.6295 95.5631C41.2101 96.0706 40.8955 96.4816 40.6606 96.7584C40.5498 96.9072 40.4247 97.0448 40.2873 97.1694Z" fill="#E0E0E0"/>
<path d="M138.262 87.8878C127.517 82.4816 123.473 70.1426 122.215 58.7094C122.005 56.8011 121.506 54.8298 122.169 53.0348C122.832 51.2397 124.774 49.7927 126.59 50.3505C128.095 50.8077 128.947 52.3595 129.945 53.601C131.26 55.2596 133.018 56.5116 135.016 57.2121C136.316 57.6651 137.868 57.8328 138.966 57.0024C140.472 55.8616 140.338 53.5716 140.053 51.6843C139.521 48.164 138.99 44.6465 138.459 41.1319C138.174 39.2445 137.893 37.3194 138.22 35.4405C138.547 33.5615 139.604 31.7119 141.328 30.9486C143.052 30.1852 145.425 30.8982 146.071 32.6933C146.34 33.4399 146.298 34.2619 146.466 35.0378C146.633 35.8137 147.12 36.6274 147.896 36.7406C148.672 36.8539 149.364 36.208 149.846 35.5705C151.524 33.3853 152.488 30.7347 153.373 28.1133C154.258 25.492 155.093 22.8162 156.561 20.4801C158.029 18.1439 160.239 16.1433 162.919 15.5981C165.599 15.0529 168.728 16.3069 169.793 18.8653C170.858 21.4237 169.701 24.3554 168.321 26.7544C166.284 30.3177 163.741 33.567 160.772 36.4009C160.235 36.9084 159.656 37.4578 159.513 38.1918C159.287 39.5088 160.658 40.5866 161.963 40.8215C163.439 41.0857 164.945 40.7208 166.442 40.6789C167.939 40.637 169.63 41.0606 170.389 42.3566C171.441 44.1768 170.12 46.4332 168.711 47.9893C165.914 51.1036 162.601 53.7128 158.918 55.7022C157.601 56.411 156.204 57.0695 155.223 58.2187C154.241 59.3679 153.814 61.1546 154.682 62.3834C155.55 63.6123 157.349 63.7927 158.767 63.3103C160.184 62.828 161.371 61.8508 162.684 61.1294C165.138 59.7747 168.514 59.4518 170.502 61.4691C171.806 62.7861 172.201 64.8244 171.903 66.6656C171.605 68.5069 170.703 70.1761 169.714 71.7447C166.258 77.2264 161.501 81.928 155.781 84.8849C150.06 87.8417 144.566 89.2132 138.266 87.8921" fill="#F5F5F5"/>
<path d="M140.162 80.3301C141.157 73.86 142.52 67.4521 144.247 61.1378L145.581 56.1594C146.021 54.5279 146.457 52.9089 146.981 51.3529C147.994 48.3651 149.171 45.4359 150.509 42.5788C151.767 39.8443 153.054 37.2943 154.283 34.9162C155.512 32.5381 156.708 30.3488 157.874 28.3985C159.703 25.3117 161.774 22.375 164.068 19.6161C164.878 18.6388 165.532 17.9007 165.981 17.41L166.492 16.8521C166.548 16.7852 166.61 16.7234 166.677 16.6676C166.633 16.7417 166.581 16.8106 166.522 16.8731L166.031 17.4561C165.612 17.9636 164.966 18.7143 164.173 19.7041C161.926 22.4842 159.891 25.4283 158.083 28.5118C156.93 30.4662 155.755 32.6598 154.539 35.0378C153.323 37.4159 152.044 39.9701 150.798 42.7005C149.47 45.5561 148.299 48.4823 147.292 51.4662C146.772 53.018 146.34 54.6201 145.899 56.2558C145.459 57.8915 145.023 59.5524 144.574 61.2301C142.849 67.5318 141.478 73.9253 140.468 80.3804" fill="#E0E0E0"/>
<path d="M147.078 51.3277C146.949 51.0795 146.848 50.8179 146.776 50.5476C146.604 50.0402 146.356 49.2894 146.105 48.3793C145.568 46.5339 144.91 43.9671 144.197 41.1319C143.484 38.2966 142.787 35.7424 142.225 33.9138C141.944 32.9995 141.709 32.2613 141.542 31.7538C141.438 31.4941 141.362 31.2242 141.315 30.9485C141.461 31.1858 141.579 31.4391 141.667 31.7035C141.877 32.1984 142.146 32.9282 142.46 33.8383C143.085 35.6501 143.819 38.2044 144.536 41.0438L146.344 48.3122C146.565 49.1846 146.754 49.9171 146.91 50.5099C146.997 50.7752 147.053 51.0496 147.078 51.3277Z" fill="#E0E0E0"/>
<path d="M170.703 43.2793C170.395 43.3943 170.076 43.4799 169.751 43.5351C169.139 43.6819 168.246 43.8874 167.155 44.1768C164.966 44.7388 161.967 45.6196 158.704 46.7352C155.441 47.8509 152.53 49.0043 150.45 49.8892C149.406 50.3086 148.571 50.7029 147.992 50.9587C147.7 51.1107 147.394 51.2343 147.078 51.3278C147.341 51.137 147.622 50.9713 147.917 50.8329C148.479 50.5393 149.301 50.1283 150.333 49.6585C152.396 48.7107 155.303 47.5279 158.574 46.3997C161.365 45.4318 164.204 44.6086 167.08 43.9336C168.183 43.6735 169.084 43.5142 169.709 43.4009C170.036 43.3283 170.369 43.2876 170.703 43.2793Z" fill="#E0E0E0"/>
<path d="M140.401 79.8394C140.319 79.7598 140.249 79.6695 140.191 79.571C140.044 79.3487 139.868 79.0761 139.65 78.7322C139.18 78.0192 138.53 76.9706 137.746 75.6663C136.173 73.0533 134.114 69.3751 131.895 65.2858C129.676 61.1966 127.651 57.5225 126.132 54.9012L124.329 51.7808L123.842 50.942C123.779 50.8455 123.728 50.7411 123.691 50.6316C123.774 50.712 123.845 50.8038 123.901 50.9042L124.442 51.743C124.912 52.456 125.562 53.5046 126.346 54.8131C127.919 57.4261 129.983 61.1043 132.218 65.1935C134.454 69.2828 136.458 72.9694 137.977 75.6117L139.78 78.7363C139.977 79.0761 140.137 79.3613 140.267 79.5752C140.321 79.6578 140.366 79.7465 140.401 79.8394Z" fill="#E0E0E0"/>
<path d="M171.165 64.7783C171.072 64.8495 170.97 64.9087 170.863 64.9545L169.974 65.3865L166.681 67.0054C163.9 68.3769 160.08 70.3104 155.865 72.4577C151.649 74.6051 147.803 76.5009 144.993 77.8136C143.588 78.4679 142.448 78.988 141.638 79.3319L140.72 79.7178C140.616 79.7724 140.504 79.8107 140.388 79.831C140.482 79.7611 140.583 79.702 140.69 79.6548L141.579 79.2061L144.876 77.5871C147.657 76.2199 151.473 74.2864 155.693 72.1348C159.912 69.9832 163.749 68.0917 166.56 66.7789C167.965 66.1246 169.105 65.6046 169.915 65.2606L170.833 64.8748C170.938 64.8259 171.05 64.7934 171.165 64.7783Z" fill="#E0E0E0"/>
<path d="M224.556 36.3003C224.556 29.4555 217.367 25.123 210.036 28.5496C208.379 29.3265 207.023 30.6262 206.177 32.2488C204.336 35.8221 205.15 39.8988 206.823 43.2877L212.527 57.7448C212.707 58.2059 213.021 58.6021 213.43 58.8813C213.839 59.1606 214.322 59.3101 214.817 59.3101C215.312 59.3101 215.795 59.1606 216.204 58.8813C216.613 58.6021 216.927 58.2059 217.107 57.7448L222.702 43.208C224.635 38.7664 224.556 36.3003 224.556 36.3003ZM217.669 42.2559C212.741 45.1205 207.746 39.8233 210.447 34.5975C210.799 33.9003 211.343 33.3183 212.015 32.9198C216.943 30.0552 221.934 35.3524 219.233 40.5783C218.882 41.2752 218.34 41.8572 217.669 42.2559Z" fill="#F5F5F5"/>
<path d="M284.02 175.725C284.02 175.788 221.108 175.834 143.542 175.834C65.9763 175.834 3.03942 175.788 3.03942 175.725C3.03942 175.662 65.926 175.616 143.542 175.616C221.158 175.616 284.02 175.666 284.02 175.725Z" fill="#263238"/>
<path d="M122.194 175.725L66.446 175.469C63.2275 175.449 60.1481 174.155 57.8824 171.868C55.6168 169.582 54.3496 166.492 54.3586 163.273L54.95 23.5125C54.9688 20.2925 56.2638 17.2114 58.5509 14.9447C60.838 12.678 63.9306 11.4108 67.1506 11.4208L122.899 11.6767C126.116 11.6966 129.194 12.9903 131.459 15.2746C133.725 17.5589 134.993 20.6476 134.986 23.8648L134.395 163.625C134.378 166.847 133.084 169.93 130.797 172.198C128.51 174.467 125.416 175.735 122.194 175.725Z" fill="#455A64"/>
<path d="M122.819 16.5L112.011 16.4496C111.299 16.4629 110.622 16.7577 110.127 17.2695C109.633 17.7814 109.362 18.4684 109.373 19.18V21.1428C109.378 21.4952 109.314 21.8451 109.185 22.1727C109.055 22.5002 108.861 22.7989 108.616 23.0518C108.371 23.3046 108.078 23.5065 107.754 23.646C107.431 23.7856 107.083 23.8599 106.73 23.8648L85.6593 23.7684C84.948 23.7475 84.2739 23.446 83.7843 22.9296C83.2947 22.4133 83.0294 21.7242 83.0463 21.0128V19.05C83.0588 18.3433 82.7925 17.6602 82.305 17.1484C81.8176 16.6366 81.1482 16.3374 80.4418 16.3154H76.6419L67.1842 16.2441C64.9291 16.233 62.7618 17.1178 61.1589 18.7042C59.5561 20.2906 58.6488 22.4485 58.6366 24.7036L58.062 161.121C58.052 163.377 58.9379 165.543 60.525 167.145C62.1122 168.747 64.2706 169.654 66.5257 169.665L122.165 169.921C123.282 169.926 124.389 169.711 125.423 169.288C126.457 168.865 127.397 168.242 128.19 167.456C128.984 166.67 129.614 165.735 130.046 164.705C130.478 163.675 130.703 162.57 130.708 161.453L131.283 25.0392C131.288 23.9227 131.073 22.8163 130.65 21.7829C130.227 20.7496 129.605 19.8096 128.82 19.0167C128.034 18.2237 127.099 17.5933 126.07 17.1615C125.04 16.7297 123.936 16.5049 122.819 16.5Z" fill="#FAFAFA"/>
<path d="M58.5695 41.0816H67.6875L75.8241 49.2224L67.3645 57.6819L58.6659 48.9791L58.5695 41.0816Z" fill="#EBEBEB"/>
<path d="M77.682 45.649L73.1105 41.0816H83.3944L77.682 45.649Z" fill="#EBEBEB"/>
<path d="M81.679 49.3817L89.6856 41.3752H117.66C117.66 41.3752 121.943 60.5003 105.078 72.7807L81.679 49.3817Z" fill="#EBEBEB"/>
<path d="M78.2524 51.9318L69.6881 60.5003L93.389 84.2013L101.953 75.3475L78.2524 51.9318Z" fill="#EBEBEB"/>
<path d="M58.4646 65.3571L63.8331 59.7873L58.5695 54.5237L58.4646 65.3571Z" fill="#EBEBEB"/>
<path d="M67.0458 63.0714L58.8001 71.317V82.7753L75.8241 100.193L90.2476 86.7723L67.0458 63.0714Z" fill="#EBEBEB"/>
<path d="M108.286 75.1839C108.286 75.1839 125.952 62.2325 120.24 41.3752H131.224L131.09 100.244L108.286 75.1839Z" fill="#EBEBEB"/>
<path d="M104.965 78.5812L96.4255 87.4979L122.614 113.69L130.624 105.201L104.965 78.5812Z" fill="#EBEBEB"/>
<path d="M92.8564 89.9388L79.431 103.268L106.282 129.93L119.682 116.974L92.8564 89.9388Z" fill="#EBEBEB"/>
<path d="M85.8186 156.722L106.345 135.449L125.868 155.35L85.8186 156.722Z" fill="#EBEBEB"/>
<path d="M109.545 132.702L130.935 111.522C130.935 112.461 130.75 155.438 130.75 155.438L109.545 132.702Z" fill="#EBEBEB"/>
<path d="M91.2458 120.808L103.371 132.933L79.431 157.636L68.3711 144.37L91.2458 120.808Z" fill="#EBEBEB"/>
<path d="M58.4856 146.09C59.6306 145.976 88.9516 118.518 88.9516 118.518L58.4856 86.9484V146.09Z" fill="#EBEBEB"/>
<path d="M58.062 152.347L65.1207 146.09L74.8972 157.636H58.062V153.22" fill="#EBEBEB"/>
<path d="M67.1842 32.7689C66.4382 32.2184 65.737 31.6098 65.0871 30.9486C65.0871 30.6299 65.0871 30.8605 65.0871 30.7892L65.1165 30.7641L65.1668 30.7179L65.2717 30.6215L65.473 30.4327L65.8547 30.0804L66.5131 29.4933C66.7126 29.2895 66.9382 29.1132 67.1842 28.969C67.0346 29.1971 66.8539 29.4032 66.6473 29.5813L66.0182 30.2021L65.6449 30.5628L65.4436 30.7557L65.343 30.8522L65.2884 30.8983L65.2633 30.9235V30.7641C65.9548 31.3813 66.597 32.0516 67.1842 32.7689Z" fill="#263238"/>
<path d="M125.168 29.5687C125.169 29.6595 125.142 29.7484 125.093 29.8243C125.043 29.9001 124.971 29.9593 124.888 29.9944C124.804 30.0296 124.712 30.039 124.622 30.0215C124.533 30.004 124.452 29.9603 124.387 29.8961C124.323 29.832 124.28 29.7501 124.262 29.661C124.245 29.572 124.254 29.4797 124.289 29.396C124.324 29.3123 124.383 29.241 124.459 29.191C124.535 29.1411 124.624 29.1149 124.715 29.1157C124.835 29.1157 124.95 29.1635 125.035 29.2484C125.12 29.3334 125.168 29.4486 125.168 29.5687Z" fill="#263238"/>
<path d="M125.038 30.8144C125.102 30.8783 125.145 30.9597 125.163 31.0484C125.181 31.1371 125.172 31.2291 125.137 31.3127C125.103 31.3963 125.044 31.4677 124.969 31.518C124.894 31.5683 124.805 31.5951 124.715 31.5951C124.624 31.5951 124.536 31.5683 124.461 31.518C124.386 31.4677 124.327 31.3963 124.292 31.3127C124.258 31.2291 124.249 31.1371 124.267 31.0484C124.284 30.9597 124.328 30.8783 124.392 30.8144C124.478 30.7298 124.594 30.6825 124.715 30.6825C124.836 30.6825 124.952 30.7298 125.038 30.8144Z" fill="#263238"/>
<path d="M125.168 32.7018C125.157 32.8149 125.104 32.92 125.02 32.9964C124.936 33.0728 124.826 33.1152 124.713 33.1152C124.599 33.1152 124.489 33.0728 124.405 32.9964C124.321 32.92 124.269 32.8149 124.258 32.7018C124.252 32.6383 124.259 32.5743 124.279 32.5139C124.299 32.4534 124.332 32.3978 124.374 32.3506C124.417 32.3035 124.469 32.2658 124.528 32.24C124.586 32.2142 124.649 32.2009 124.713 32.2009C124.776 32.2009 124.839 32.2142 124.898 32.24C124.956 32.2658 125.008 32.3035 125.051 32.3506C125.094 32.3978 125.126 32.4534 125.147 32.5139C125.167 32.5743 125.174 32.6383 125.168 32.7018Z" fill="#263238"/>
<path d="M105.514 31.4268H85.8941V33.0625H105.514V31.4268Z" fill="#263238"/>
<path d="M103.379 60.773C103.379 53.1314 95.3519 48.2913 87.1649 52.1206C85.3125 52.9859 83.797 54.4379 82.8534 56.2518C80.7941 60.2404 81.7042 64.7952 83.5706 68.5783L89.9456 84.7298C90.1469 85.2445 90.4988 85.6865 90.9552 85.998C91.4116 86.3096 91.9514 86.4763 92.504 86.4763C93.0567 86.4763 93.5965 86.3096 94.0529 85.998C94.5093 85.6865 94.8612 85.2445 95.0625 84.7298L101.307 68.4944C103.472 63.5453 103.379 60.773 103.379 60.773ZM95.7042 67.4417C90.2015 70.6418 84.6233 64.7281 87.6389 58.8899C88.0362 58.12 88.6423 57.4775 89.3878 57.0361C94.8947 53.836 100.473 59.7497 97.4531 65.5879C97.0575 66.359 96.4509 67.0018 95.7042 67.4417Z" fill="#F7B731"/>
<path d="M270.209 119.122H37.5108V153.266H270.209V119.122Z" fill="#F7B731"/>
<g opacity="0.5">
<path d="M270.209 119.122H37.5108V153.266H270.209V119.122Z" fill="black"/>
</g>
<path d="M70.2892 175.421C82.6536 174.589 92.0025 163.891 91.1704 151.527C90.3383 139.162 79.6404 129.813 67.2759 130.645C54.9114 131.478 45.5626 142.175 46.3947 154.54C47.2268 166.904 57.9247 176.253 70.2892 175.421Z" fill="#263238"/>
<path d="M46.3478 152.653C46.3478 152.674 46.3478 152.695 46.3478 152.712C46.3052 155.659 46.8433 158.585 47.9315 161.324C49.0197 164.062 50.6367 166.56 52.6901 168.674C54.7435 170.788 57.1932 172.476 59.8992 173.643C62.6052 174.81 65.5146 175.433 68.4613 175.476C71.408 175.518 74.3342 174.98 77.0729 173.892C79.8116 172.804 82.3091 171.187 84.4229 169.133C86.5367 167.08 88.2254 164.63 89.3924 161.924C90.5595 159.218 91.1822 156.309 91.2249 153.362C91.2249 153.341 91.2249 153.32 91.2249 153.304L46.3478 152.653Z" fill="#263238"/>
<path d="M53.0291 152.809C52.9829 155.924 53.8618 158.984 55.5547 161.6C57.2475 164.216 59.6782 166.271 62.5392 167.506C65.4003 168.74 68.5633 169.099 71.628 168.535C74.6927 167.972 77.5215 166.513 79.7567 164.341C81.9918 162.17 83.5328 159.385 84.1848 156.338C84.8368 153.291 84.5705 150.119 83.4195 147.223C82.2685 144.327 80.2846 141.838 77.7187 140.07C75.1528 138.302 72.1202 137.335 69.0044 137.29C64.8285 137.231 60.7998 138.832 57.8042 141.742C54.8085 144.652 53.0909 148.633 53.0291 152.809Z" fill="#FAFAFA"/>
<path d="M69.0044 137.286C64.8282 137.226 60.7989 138.827 57.8029 141.737C54.807 144.647 53.0898 148.628 53.0291 152.804L84.531 153.262C84.5904 149.084 82.988 145.054 80.0762 142.058C77.1644 139.062 73.1818 137.346 69.0044 137.286Z" fill="#E0E0E0"/>
<path d="M59.186 152.897C59.158 154.795 59.6935 156.658 60.7248 158.252C61.7561 159.846 63.2369 161.097 64.9798 161.849C66.7228 162.601 68.6495 162.819 70.5165 162.476C72.3834 162.133 74.1065 161.244 75.468 159.921C76.8295 158.598 77.768 156.901 78.165 155.045C78.562 153.189 78.3996 151.257 77.6983 149.493C76.9969 147.729 75.7882 146.213 74.225 145.136C72.6618 144.059 70.8144 143.47 68.9164 143.443C67.6567 143.425 66.4058 143.655 65.235 144.12C64.0643 144.585 62.9966 145.276 62.093 146.154C61.1895 147.032 60.4677 148.079 59.9689 149.236C59.4701 150.393 59.2041 151.637 59.186 152.897Z" fill="#263238"/>
<path d="M241.67 175.413C254.042 174.696 263.489 164.085 262.772 151.713C262.054 139.342 251.443 129.894 239.071 130.612C226.7 131.329 217.252 141.94 217.97 154.312C218.688 166.684 229.299 176.131 241.67 175.413Z" fill="#263238"/>
<path d="M217.929 152.653C217.929 152.674 217.929 152.695 217.929 152.712C217.886 155.659 218.424 158.585 219.513 161.324C220.601 164.062 222.218 166.56 224.271 168.674C226.325 170.788 228.774 172.476 231.48 173.643C234.186 174.81 237.096 175.433 240.043 175.476C242.989 175.518 245.915 174.98 248.654 173.892C251.393 172.804 253.89 171.187 256.004 169.133C258.118 167.08 259.807 164.63 260.974 161.924C262.141 159.218 262.763 156.309 262.806 153.362C262.806 153.341 262.806 153.32 262.806 153.304L217.929 152.653Z" fill="#263238"/>
<path d="M224.61 152.809C224.564 155.924 225.443 158.984 227.136 161.6C228.829 164.216 231.259 166.271 234.12 167.506C236.982 168.74 240.144 169.099 243.209 168.535C246.274 167.972 249.103 166.513 251.338 164.341C253.573 162.17 255.114 159.385 255.766 156.338C256.418 153.291 256.152 150.119 255.001 147.223C253.85 144.327 251.866 141.838 249.3 140.07C246.734 138.302 243.701 137.335 240.586 137.29C236.41 137.231 232.381 138.832 229.385 141.742C226.39 144.652 224.672 148.633 224.61 152.809Z" fill="#FAFAFA"/>
<path d="M240.586 137.286C236.409 137.226 232.38 138.827 229.384 141.737C226.388 144.647 224.671 148.628 224.61 152.804L256.112 153.262C256.172 149.084 254.569 145.054 251.657 142.058C248.746 139.062 244.763 137.346 240.586 137.286Z" fill="#E0E0E0"/>
<path d="M230.755 152.897C230.727 154.795 231.262 156.658 232.293 158.252C233.325 159.846 234.806 161.097 236.548 161.849C238.291 162.601 240.218 162.819 242.085 162.476C243.952 162.133 245.675 161.244 247.037 159.921C248.398 158.598 249.337 156.901 249.734 155.045C250.131 153.189 249.968 151.257 249.267 149.493C248.566 147.729 247.357 146.213 245.794 145.136C244.23 144.059 242.383 143.47 240.485 143.443C239.225 143.425 237.974 143.655 236.804 144.12C235.633 144.585 234.565 145.276 233.662 146.154C232.758 147.032 232.036 148.079 231.537 149.236C231.039 150.393 230.773 151.637 230.755 152.897Z" fill="#263238"/>
<path d="M98.1913 99.9125C98.1913 99.9125 65.15 102.349 52.8948 105.096C44.2634 107.03 27.6211 110.373 27.8224 120.841L29.1436 128.349C29.1436 128.349 22.974 131.167 22.974 138.364C22.974 145.561 21.4683 156.718 35.8793 157.166C38.2532 157.238 42.7619 157.166 42.7619 157.166C42.7619 157.166 39.9979 126.474 68.1908 125.576C96.8743 124.662 94.9702 156.885 94.9702 156.885H214.683C214.683 156.885 209.767 125.492 240.644 125.429C271.521 125.367 266.824 157.091 266.824 157.091C266.824 157.091 278.182 158.072 283.466 148.526C288.751 138.981 287.379 132.169 287.379 132.169L287.203 126.134C287.17 125.144 286.761 124.203 286.061 123.502C285.36 122.801 284.419 122.393 283.429 122.359C283.429 122.359 285.492 107.168 282.325 104.539C279.159 101.909 261.808 86.0425 261.808 86.0425L262.647 85.5267C262.958 85.3301 263.207 85.0494 263.364 84.7172C263.522 84.3849 263.583 84.0147 263.539 83.6495C263.495 83.2842 263.349 82.9389 263.116 82.6535C262.884 82.3681 262.576 82.1544 262.227 82.0372C255.638 79.7723 242.611 75.2888 239.55 74.2193C239.091 74.0563 238.613 73.9548 238.128 73.9174C236.299 73.7789 231.124 73.4518 221.624 73.3511C210.052 73.2253 164.11 73.3511 164.11 73.3511C164.11 73.3511 148.298 74.6513 139.491 78.5267C130.255 82.6034 98.1913 99.9125 98.1913 99.9125Z" fill="#F7B731"/>
<g opacity="0.4">
<path d="M31.3539 137.525C30.1544 137.282 28.3173 137.261 27.403 138.071C26.7236 138.674 26.5432 139.652 26.4426 140.553C26.2499 141.789 26.2783 143.048 26.5265 144.274C26.653 144.886 26.9046 145.465 27.2654 145.975C27.6263 146.485 28.0886 146.916 28.6235 147.239C29.7224 147.834 31.2239 147.738 32.0753 146.819C32.8554 145.981 32.9435 144.722 32.9141 143.603C32.8847 141.984 33.0148 140.612 32.717 139.023C32.6513 138.685 32.5077 138.368 32.2976 138.096C32.1931 137.933 32.0524 137.796 31.8866 137.697C31.7207 137.597 31.5341 137.537 31.3413 137.521" fill="black"/>
</g>
<path d="M29.152 128.349C32.6583 128.349 36.0597 128.156 39.5618 127.929C39.9433 127.946 40.3191 127.832 40.6271 127.606C40.7679 127.431 40.8727 127.23 40.9354 127.014C40.998 126.798 41.0172 126.571 40.992 126.348C40.992 124.469 40.9165 122.33 39.4905 121.105C38.6181 120.359 37.4228 120.124 36.2778 120.019C33.4344 119.712 30.5582 119.997 27.8308 120.858L29.152 128.349Z" fill="#FAFAFA"/>
<path d="M101.995 155.925C101.995 155.925 101.995 155.824 101.97 155.623C101.945 155.422 101.937 155.124 101.911 154.742C101.87 153.962 101.807 152.825 101.727 151.357C101.647 149.89 101.547 148.09 101.337 146.01C101.12 143.655 100.706 141.321 100.1 139.035C99.334 136.274 98.1983 133.628 96.7233 131.171C95.0527 128.334 92.8326 125.859 90.1931 123.89C84.5353 119.864 76.8894 117.599 68.8912 117.49C60.893 117.381 53.243 119.91 47.7235 124.15C45.0778 126.108 42.7603 128.473 40.8577 131.159C39.1965 133.49 37.8459 136.028 36.8398 138.708C36.0099 140.923 35.4398 143.227 35.1412 145.574C34.9073 147.343 34.8385 149.131 34.9357 150.913C35.0045 152.039 35.1446 153.16 35.3551 154.268C35.4222 154.641 35.4767 154.931 35.5103 155.132C35.5438 155.333 35.5564 155.43 35.5564 155.43C35.5564 155.43 35.5312 155.333 35.4893 155.141L35.3089 154.302C35.0807 153.195 34.9293 152.074 34.856 150.946C34.7419 149.158 34.7981 147.364 35.0237 145.586C35.3128 143.228 35.8758 140.911 36.7014 138.683C37.704 135.981 39.0547 133.422 40.7193 131.071C42.6262 128.363 44.954 125.979 47.6145 124.008C53.1591 119.746 60.8259 117.192 68.887 117.297C76.9481 117.402 84.6065 119.688 90.3105 123.752C92.9658 125.74 95.1974 128.238 96.8743 131.1C98.3479 133.576 99.4768 136.241 100.23 139.023C100.833 141.318 101.239 143.662 101.442 146.027C101.639 148.124 101.727 149.91 101.794 151.378C101.861 152.846 101.907 153.987 101.941 154.767C101.941 155.149 101.966 155.443 101.974 155.648C101.983 155.854 101.995 155.925 101.995 155.925Z" fill="white"/>
<path d="M103.254 156.445V156.193L103.228 155.451C103.207 154.788 103.178 153.819 103.136 152.553C103.065 150.007 102.96 146.287 102.826 141.552C102.692 136.816 102.536 131.066 102.356 124.482C102.31 122.833 102.268 121.126 102.218 119.386C102.188 118.496 102.227 117.606 102.335 116.722L102.524 115.372L102.801 114.017C103.235 112.167 103.86 110.366 104.667 108.645C105.498 106.84 106.524 105.133 107.729 103.553L128.46 90.4925L134.059 86.9694C135.947 85.7154 137.928 84.609 139.986 83.6603C142.09 82.6693 144.249 81.7997 146.453 81.0557C147.552 80.6699 148.68 80.3553 149.808 80.0198C150.936 79.6843 152.086 79.4074 153.252 79.181C157.648 78.2404 162.117 77.6792 166.61 77.5033C170.921 77.2967 175.239 77.3107 179.549 77.5453H179.67L179.641 77.6669L174.071 102.584C173.042 104.274 172.199 106.069 171.555 107.94C170.921 109.714 170.636 111.594 170.716 113.476C170.859 115.317 170.909 117.121 170.955 118.87C171.001 120.619 171.022 122.313 171.056 123.962C171.152 130.546 171.177 136.288 171.194 141.019C171.211 145.75 171.194 149.47 171.194 152.012C171.194 153.27 171.194 154.247 171.194 154.91C171.194 155.233 171.194 155.48 171.194 155.652C171.194 155.824 171.194 155.904 171.194 155.904C171.194 155.904 171.194 155.816 171.194 155.652C171.194 155.489 171.194 155.233 171.194 154.91C171.194 154.247 171.194 153.278 171.194 152.012C171.194 149.47 171.156 145.75 171.127 141.023C171.098 136.296 171.056 130.538 170.942 123.962C170.909 122.317 170.872 120.622 170.833 118.874C170.783 117.125 170.733 115.33 170.586 113.489C170.501 111.583 170.786 109.679 171.425 107.881C172.064 105.996 172.908 104.186 173.941 102.483V102.513C175.648 94.8418 177.515 86.4703 179.49 77.5914L179.586 77.7172C175.287 77.4856 170.978 77.4744 166.677 77.6837C162.195 77.8571 157.737 78.4185 153.352 79.3613C152.191 79.592 151.058 79.9149 149.921 80.2001C148.785 80.4853 147.673 80.8502 146.566 81.2319C144.362 81.977 142.203 82.8481 140.099 83.8406C138.051 84.7831 136.08 85.8824 134.202 87.1288L128.599 90.6519L107.867 103.683V103.662C106.665 105.231 105.641 106.929 104.814 108.724C104.008 110.433 103.384 112.221 102.952 114.059C102.008 117.654 102.482 121.189 102.49 124.482L102.91 141.552C103.023 146.283 103.111 150.007 103.17 152.549C103.199 153.807 103.216 154.788 103.233 155.451C103.233 155.772 103.233 156.02 103.233 156.193C103.254 156.361 103.254 156.445 103.254 156.445Z" fill="#263238"/>
<path d="M179.398 78.2372H179.595L180.169 78.2163L182.397 78.1617L190.655 78.0024L218.495 77.5242H218.55L218.583 77.5662L222.484 82.3433C226.435 87.1959 230.201 91.8094 233.623 96.0035L234.882 97.5553C235.289 98.0754 235.639 98.6379 235.926 99.233C236.446 100.337 236.728 101.537 236.755 102.756C236.781 103.976 236.552 105.187 236.081 106.313L234.823 109.248L230.973 118.157L229.916 120.573L229.635 121.202C229.572 121.34 229.534 121.411 229.534 121.411C229.534 121.411 229.559 121.336 229.614 121.193C229.668 121.051 229.765 120.828 229.874 120.556C230.113 119.994 230.453 119.172 230.893 118.123L234.668 109.19C235.389 107.294 236.66 105.298 236.572 102.865C236.553 101.629 236.267 100.411 235.733 99.2959C235.452 98.7167 235.109 98.1696 234.71 97.6644L233.451 96.1125L222.299 82.4649L218.403 77.6878L218.487 77.7297L190.642 78.1491L182.384 78.2456H180.157H179.586L179.398 78.2372Z" fill="#263238"/>
<path d="M165.326 115.263C165.326 115.263 165.444 115.263 165.658 115.213C165.972 115.157 166.272 115.037 166.539 114.86C166.961 114.585 167.278 114.173 167.436 113.694C167.532 113.397 167.572 113.084 167.554 112.772C167.544 112.423 167.455 112.082 167.293 111.773C167.106 111.422 166.828 111.127 166.488 110.92C166.148 110.713 165.758 110.6 165.36 110.595H162.533H156.053C155.506 110.596 154.979 110.802 154.577 111.174C154.184 111.531 153.934 112.018 153.872 112.545C153.809 113.054 153.902 113.571 154.141 114.026C154.384 114.453 154.761 114.787 155.214 114.978C155.663 115.131 156.139 115.19 156.611 115.15H157.983H160.449L164.018 115.183L164.987 115.204C165.101 115.202 165.214 115.21 165.326 115.229C165.214 115.243 165.1 115.25 164.987 115.25H164.018L160.449 115.284H157.983H156.611C156.372 115.284 156.141 115.284 155.885 115.284C155.629 115.268 155.377 115.21 155.139 115.112C154.642 114.908 154.227 114.543 153.96 114.076C153.694 113.585 153.59 113.023 153.663 112.47C153.729 111.881 154.009 111.338 154.449 110.942C154.89 110.547 155.461 110.328 156.053 110.326H162.533H165.364C165.792 110.335 166.21 110.46 166.573 110.686C166.936 110.913 167.231 111.234 167.428 111.614C167.596 111.944 167.686 112.309 167.692 112.679C167.706 113.007 167.659 113.334 167.554 113.644C167.376 114.142 167.035 114.565 166.585 114.843C166.307 115.02 165.993 115.13 165.666 115.166C165.557 115.212 165.443 115.244 165.326 115.263Z" fill="#263238"/>
<path d="M227.399 115.263C227.399 115.263 227.517 115.263 227.731 115.213C228.045 115.157 228.345 115.037 228.611 114.86C229.034 114.585 229.351 114.173 229.509 113.694C229.605 113.397 229.645 113.084 229.626 112.772C229.616 112.423 229.528 112.082 229.366 111.773C229.179 111.422 228.901 111.127 228.561 110.92C228.221 110.713 227.831 110.6 227.433 110.595H224.606H218.126C217.579 110.596 217.052 110.802 216.65 111.174C216.257 111.531 216.007 112.018 215.945 112.545C215.882 113.054 215.975 113.571 216.214 114.026C216.457 114.453 216.834 114.787 217.287 114.978C217.736 115.131 218.212 115.19 218.684 115.15H220.055H222.522L226.091 115.183L227.06 115.204C227.173 115.202 227.287 115.21 227.399 115.229C227.287 115.243 227.173 115.25 227.06 115.25H226.091L222.522 115.284H220.055H218.684C218.445 115.284 218.214 115.284 217.958 115.284C217.702 115.268 217.45 115.21 217.212 115.112C216.715 114.908 216.3 114.543 216.033 114.076C215.767 113.585 215.663 113.023 215.736 112.47C215.801 111.881 216.081 111.338 216.522 110.942C216.963 110.547 217.534 110.328 218.126 110.326H224.606H227.437C227.865 110.335 228.283 110.46 228.646 110.686C229.009 110.913 229.304 111.234 229.501 111.614C229.669 111.944 229.759 112.309 229.765 112.679C229.778 113.007 229.732 113.334 229.626 113.644C229.449 114.142 229.107 114.565 228.658 114.843C228.38 115.02 228.066 115.13 227.739 115.166C227.63 115.212 227.516 115.244 227.399 115.263Z" fill="#263238"/>
<path d="M281.793 105.138H269.378C268.544 105.138 267.725 105.366 267.01 105.797C266.295 106.228 265.712 106.845 265.323 107.584C265.003 108.194 264.824 108.869 264.801 109.558C264.778 110.247 264.91 110.933 265.188 111.564L270.053 122.624L282.485 122.502C282.485 122.502 285.131 108.481 281.793 105.138Z" fill="#FAFAFA"/>
<path d="M109.377 103.574L173.434 102.391L215.123 101.628L228.871 93.6884C229.133 93.5362 229.359 93.3302 229.535 93.084C229.71 92.8379 229.832 92.5572 229.891 92.2606C229.95 91.964 229.945 91.6582 229.877 91.3635C229.809 91.0688 229.679 90.7919 229.496 90.5512L220.936 79.3067C220.496 78.7278 219.93 78.2574 219.28 77.9316C218.63 77.6059 217.914 77.4336 217.187 77.4278L170.557 77.0503C170.557 77.0503 153 76.0269 139.164 83.7609C124.614 91.9268 109.377 103.574 109.377 103.574Z" fill="#263238"/>
<path d="M138.732 78.2121C138.732 78.2121 141.944 79.6758 139.856 81.0305C137.767 82.3852 105.313 102.84 105.313 102.84L97.8516 99.4637C111.067 92.1114 124.413 84.9604 138.732 78.2121Z" fill="#455A64"/>
<path d="M106.361 103.36L106.16 103.41L105.569 103.54L103.291 104.01C101.312 104.404 98.4429 104.958 94.9031 105.57C87.7731 106.795 77.9085 108.221 66.9325 109.169C64.1854 109.408 61.4802 109.588 58.9134 109.773C56.3466 109.957 53.8217 110.104 51.4479 110.318C46.6959 110.737 42.4431 111.425 38.9872 112.453C36.2402 113.217 33.5966 114.312 31.1148 115.716C30.2215 116.186 29.584 116.647 29.1352 116.924L28.6235 117.247L28.4432 117.352C28.497 117.308 28.553 117.268 28.6109 117.23L29.11 116.886C29.5546 116.597 30.1837 116.123 31.0729 115.628C33.5397 114.186 36.1773 113.059 38.9243 112.272C42.3886 111.22 46.654 110.511 51.4101 110.087C53.7882 109.861 56.2879 109.701 58.8798 109.53C61.4718 109.358 64.1518 109.156 66.8948 108.917C77.8666 107.969 87.7437 106.568 94.8611 105.382C98.4219 104.79 101.291 104.262 103.275 103.893L105.56 103.473L106.156 103.364L106.361 103.36Z" fill="#263238"/>
<path d="M286.754 132.044C286.754 132.106 282.485 132.153 277.221 132.153C271.958 132.153 267.684 132.106 267.684 132.044C267.684 131.981 271.953 131.935 277.221 131.935C282.489 131.935 286.754 131.985 286.754 132.044Z" fill="#263238"/>
<path d="M208.647 142.94C208.647 143.003 184.548 143.049 154.824 143.049C125.101 143.049 100.997 143.003 100.997 142.94C100.997 142.877 125.092 142.831 154.824 142.831C184.556 142.831 208.647 142.881 208.647 142.94Z" fill="#263238"/>
<path d="M39.9225 132.404C39.9225 132.467 36.5126 132.513 32.3101 132.513C28.1076 132.513 24.6978 132.467 24.6978 132.404C24.6978 132.341 28.1076 132.295 32.3101 132.295C36.5126 132.295 39.9225 132.345 39.9225 132.404Z" fill="#263238"/>
<path d="M261.485 85.6063C261.485 85.6063 258.625 88.8064 259.749 91.1551C260.873 93.5038 272.494 101.733 272.494 101.733L280.929 103.314L261.485 85.6063Z" fill="#455A64"/>
<path d="M181.293 79.873L179.398 100.357L213.336 99.3882L227.013 91.4362L218.16 79.873H181.293Z" fill="#455A64"/>
<path d="M117.413 101.406C117.413 101.406 137.889 86.6171 145.966 83.677C153.763 80.8418 157.827 80.1288 165.15 79.9023C172.15 79.701 176.416 79.9023 176.416 79.9023L171.005 100.726L117.413 101.406Z" fill="#455A64"/>
<path d="M114.418 101.456C114.419 100.819 114.588 100.194 114.909 99.6441C115.231 99.0944 115.692 98.6399 116.247 98.3271L120.953 95.6848C122.293 94.9302 123.806 94.5344 125.344 94.5356C126.291 94.5368 127.232 94.6869 128.133 94.9802C129.114 95.3194 129.967 95.9496 130.58 96.7866C131.193 97.6237 131.536 98.6278 131.564 99.665C131.59 100.362 131.476 101.056 131.228 101.708C130.979 102.359 130.602 102.954 130.118 103.456C129.635 103.958 129.055 104.357 128.413 104.63C127.771 104.902 127.081 105.042 126.384 105.042H117.996C117.046 105.04 116.136 104.661 115.466 103.989C114.795 103.316 114.418 102.405 114.418 101.456Z" fill="#F7B731"/>
<path d="M114.418 101.456C114.418 101.456 114.418 101.615 114.473 101.909C114.536 102.341 114.678 102.757 114.892 103.138C115.231 103.737 115.731 104.229 116.335 104.559C116.712 104.757 117.121 104.885 117.543 104.937C118.024 104.973 118.507 104.982 118.99 104.966L126.166 104.941C126.846 104.959 127.524 104.848 128.162 104.614C128.837 104.362 129.45 103.97 129.961 103.464C130.473 102.958 130.872 102.349 131.132 101.678C131.396 100.97 131.503 100.213 131.446 99.4594C131.39 98.7167 131.171 97.9954 130.805 97.3467C130.439 96.6981 129.935 96.1378 129.328 95.7057C128.743 95.3008 128.083 95.0158 127.387 94.8669C125.474 94.4146 123.465 94.6078 121.674 95.4163C121.133 95.6596 120.638 95.9657 120.147 96.23L118.747 97.0101L116.335 98.3438C115.728 98.6704 115.228 99.1637 114.892 99.7656C114.681 100.147 114.539 100.563 114.473 100.994C114.431 101.288 114.435 101.447 114.423 101.447C114.407 101.294 114.407 101.139 114.423 100.986C114.47 100.546 114.601 100.119 114.808 99.7279C115.138 99.1014 115.644 98.5853 116.264 98.2431L118.659 96.88L120.051 96.0874C120.538 95.8189 121.032 95.5086 121.586 95.2485C123.411 94.4084 125.464 94.2017 127.42 94.6614C128.141 94.8047 128.827 95.0898 129.437 95.5002C130.072 95.9495 130.599 96.5331 130.982 97.2095C131.364 97.8859 131.593 98.6383 131.652 99.4133C131.713 100.2 131.602 100.99 131.325 101.728C131.054 102.43 130.637 103.065 130.102 103.593C129.567 104.121 128.926 104.529 128.221 104.79C127.559 105.029 126.857 105.141 126.153 105.121L118.977 105.101C118.489 105.111 118 105.096 117.514 105.054C117.072 104.993 116.645 104.851 116.255 104.635C115.637 104.289 115.131 103.774 114.796 103.15C114.591 102.758 114.461 102.332 114.414 101.892C114.404 101.747 114.405 101.601 114.418 101.456Z" fill="#263238"/>
<path d="M272.167 156.114C272.167 156.114 272.167 156.017 272.167 155.824C272.167 155.631 272.201 155.342 272.226 154.985C272.251 154.629 272.293 154.147 272.318 153.601C272.343 153.056 272.36 152.419 272.381 151.71C272.402 151.001 272.381 150.204 272.381 149.34C272.381 148.476 272.318 147.532 272.201 146.526C272.01 144.245 271.604 141.987 270.989 139.782C270.626 138.496 270.179 137.235 269.651 136.007C269.09 134.681 268.413 133.407 267.629 132.199C265.881 129.536 263.658 127.219 261.07 125.362C258.221 123.294 255.041 121.725 251.666 120.724C248.169 119.654 244.36 119.264 240.485 119.235C236.705 119.2 232.942 119.748 229.329 120.858C227.618 121.398 225.956 122.085 224.363 122.909C222.843 123.716 221.4 124.66 220.051 125.727C217.543 127.692 215.309 129.982 213.408 132.539C212.572 133.712 211.834 134.952 211.202 136.246C210.625 137.446 210.115 138.677 209.675 139.933C208.335 143.718 207.519 147.669 207.251 151.676C207.184 153.098 207.192 154.193 207.23 154.956C207.251 155.325 207.268 155.606 207.276 155.795C207.284 155.984 207.276 156.084 207.276 156.084C207.276 156.084 207.276 155.988 207.242 155.795C207.209 155.602 207.2 155.313 207.171 154.956C207.116 153.862 207.116 152.766 207.171 151.672C207.403 147.643 208.198 143.666 209.532 139.857C209.973 138.596 210.48 137.358 211.051 136.15C211.688 134.846 212.429 133.595 213.265 132.408C215.172 129.836 217.414 127.528 219.93 125.547C221.287 124.471 222.738 123.519 224.266 122.703C225.871 121.872 227.543 121.181 229.266 120.636C232.9 119.512 236.686 118.959 240.489 118.996C244.381 119.025 248.206 119.415 251.734 120.497C255.131 121.508 258.33 123.091 261.196 125.178C262.522 126.154 263.763 127.243 264.903 128.432C265.986 129.548 266.952 130.772 267.784 132.086C268.571 133.304 269.249 134.59 269.81 135.927C270.337 137.154 270.782 138.415 271.14 139.702C271.752 141.918 272.149 144.188 272.327 146.48C272.44 147.486 272.44 148.43 272.486 149.298C272.532 150.166 272.486 150.976 272.486 151.672C272.486 152.368 272.423 153.018 272.398 153.568C272.373 154.117 272.318 154.574 272.285 154.952C272.251 155.329 272.226 155.602 272.209 155.791C272.192 155.979 272.167 156.114 272.167 156.114Z" fill="white"/>
<path d="M170.011 103.574H169.726L168.631 103.599L164.609 103.67C161.212 103.733 156.523 103.859 151.339 104.002C146.155 104.144 141.462 104.241 138.065 104.266C136.366 104.266 134.99 104.266 134.038 104.266H132.944H132.663C132.629 104.272 132.595 104.272 132.562 104.266C132.595 104.261 132.629 104.261 132.663 104.266H132.944L134.038 104.241L138.061 104.169C141.458 104.107 146.151 103.981 151.335 103.842C156.519 103.704 161.212 103.599 164.609 103.574C166.287 103.574 167.684 103.574 168.631 103.574H169.726H170.011Z" fill="white"/>
<path d="M164.546 109.878C163.325 109.988 162.098 110.025 160.872 109.987C159.647 110.025 158.42 109.988 157.198 109.878C158.42 109.77 159.647 109.733 160.872 109.769C162.098 109.733 163.325 109.77 164.546 109.878Z" fill="white"/>
<path d="M165.897 87.4349C165.918 87.4894 161.359 89.3894 155.709 91.6752C150.06 93.961 145.463 95.7728 145.438 95.7141C145.413 95.6554 149.976 93.7596 155.625 91.4738C161.275 89.1881 165.872 87.3804 165.897 87.4349Z" fill="white"/>
<path d="M156.653 88.8735C156.678 88.9322 152.333 90.8448 146.952 93.1473C141.571 95.4499 137.192 97.2743 137.167 97.2198C137.142 97.1653 141.487 95.2528 146.868 92.946C152.249 90.6392 156.628 88.8106 156.653 88.8735Z" fill="white"/>
<path d="M215.27 86.6423C215.295 86.6968 210.732 88.5967 205.082 90.8825C199.433 93.1683 194.836 94.976 194.811 94.9214C194.786 94.8669 199.349 92.967 205.003 90.6812C210.656 88.3954 215.236 86.5835 215.27 86.6423Z" fill="white"/>
<path d="M206.009 88.0724C206.035 88.1311 201.689 90.0437 196.313 92.3462C190.936 94.6488 186.549 96.4732 186.524 96.4187C186.498 96.3642 190.843 94.4517 196.225 92.1449C201.606 89.8381 206.009 88.0347 206.009 88.0724Z" fill="white"/>
<path d="M216.163 103.553C216.163 103.612 207.091 103.717 195.902 103.784C184.712 103.851 175.64 103.855 175.64 103.784C175.64 103.712 184.707 103.62 195.902 103.557C207.096 103.494 216.163 103.507 216.163 103.553Z" fill="white"/>
<path d="M226.208 109.53C226.208 109.588 223.667 109.66 220.525 109.689C217.384 109.718 214.842 109.689 214.842 109.634C214.842 109.58 217.384 109.5 220.525 109.471C223.667 109.441 226.208 109.467 226.208 109.53Z" fill="white"/>
<path d="M52.5048 106.426C52.4247 106.453 52.3416 106.47 52.2573 106.476L51.5485 106.569C51.2382 106.602 50.8607 106.648 50.4245 106.724C49.9883 106.799 49.4892 106.854 48.944 106.963C47.8493 107.156 46.5533 107.441 45.1357 107.802C43.6001 108.225 42.0869 108.726 40.6019 109.303C39.0249 109.928 37.5612 110.612 36.2526 111.287C34.944 111.962 33.8116 112.642 32.8973 113.25C32.4234 113.539 32.0124 113.833 31.6391 114.089C31.2658 114.344 30.9596 114.554 30.708 114.739L30.125 115.158C30.0582 115.21 29.9866 115.255 29.9111 115.292C29.9667 115.23 30.0285 115.174 30.0956 115.124L30.6577 114.676C30.9009 114.483 31.2029 114.256 31.5678 113.992C31.9327 113.728 32.3311 113.434 32.826 113.153C33.7487 112.528 34.8895 111.845 36.1813 111.144C39.0094 109.632 42.0048 108.457 45.1064 107.642C46.5324 107.273 47.8368 107 48.9398 106.829C49.4892 106.728 49.9883 106.678 50.4287 106.619C50.8691 106.56 51.2675 106.522 51.5569 106.501L52.2741 106.447C52.3504 106.434 52.4275 106.427 52.5048 106.426Z" fill="white"/>
<path d="M127.403 96.532C127.403 96.532 127.282 96.3684 126.984 96.142C126.582 95.8339 126.103 95.6411 125.6 95.5841C124.845 95.5212 124.085 95.6023 123.36 95.8232C120.806 96.4664 118.434 97.6875 116.427 99.3924C115.429 100.231 114.901 100.848 114.871 100.818C114.973 100.658 115.091 100.509 115.224 100.374C115.57 99.9885 115.937 99.6217 116.322 99.2749C117.604 98.1337 119.059 97.2049 120.634 96.5236C121.498 96.1452 122.395 95.8462 123.314 95.6303C124.062 95.4126 124.846 95.3442 125.621 95.429C126.147 95.5011 126.64 95.7272 127.038 96.079C127.144 96.1739 127.239 96.2809 127.319 96.3978C127.387 96.4817 127.412 96.5278 127.403 96.532Z" fill="white"/>
<path d="M262.437 85.4553C261.852 85.5966 261.251 85.6587 260.65 85.6399C259.945 85.6187 259.243 85.5317 258.553 85.3798C257.643 85.1659 256.75 84.8855 255.882 84.541C254.913 84.1761 253.881 83.7022 252.765 83.2366L251.025 82.5362C250.425 82.2972 249.792 82.0917 249.154 81.8568C246.355 80.9088 243.5 80.1314 240.607 79.529C235.346 78.434 230.004 77.7719 224.635 77.5494C223.604 77.4949 222.673 77.4949 221.851 77.4739H219.753L218.428 77.5033H217.963C218.001 77.4959 218.041 77.4959 218.08 77.5033L218.424 77.4781L219.753 77.4068L221.851 77.3691C222.689 77.3691 223.604 77.3691 224.635 77.4194C230.019 77.5951 235.377 78.2407 240.649 79.3487C243.548 79.9444 246.407 80.7233 249.209 81.6806C249.846 81.9155 250.467 82.1252 251.084 82.3685L252.824 83.0857C253.94 83.568 254.967 84.0377 255.928 84.411C256.785 84.7565 257.667 85.0369 258.566 85.2498C259.246 85.4127 259.939 85.511 260.638 85.5434C261.079 85.5586 261.52 85.5431 261.959 85.4973L262.299 85.4553H262.437Z" fill="#263238"/>
<path d="M60.6455 86.0342C58.9679 76.8574 57.8397 75.4482 56.8918 72.2901C55.944 69.1319 54.4383 67.081 52.5635 66.3554C51.3053 65.8689 44.9847 63.5915 42.787 64.3464C40.6368 65.1109 38.5898 66.1393 36.693 67.4081C35.2209 68.3845 34.1054 69.812 33.5138 71.4764L30.1585 80.9425L36.0639 86.8143L39.0249 80.5231L42.2376 88.0725L41.7636 95.6848L60.1884 100.642C61.8493 97.958 61.5976 91.2391 60.6455 86.0342Z" fill="#F7B731"/>
<g opacity="0.2">
<path d="M55.8601 76.0227C55.0464 80.7998 54.9164 81.4751 54.1027 86.2354C53.8217 87.8753 53.0039 90.4295 51.8379 91.6206C50.9739 92.4972 50.1267 93.3402 48.923 93.6254C47.8074 93.8896 46.1088 93.919 45.0602 93.4576C44.0117 92.9963 43.1142 90.9412 43.5462 89.8884C45.1106 90.224 45.5929 90.7273 46.9392 89.8884C48.1135 89.1419 49.7828 87.4894 50.4203 86.2521C53.1087 81.0514 53.8511 80.8669 55.8727 76.0227" fill="black"/>
</g>
<path d="M42.5102 85.2791C42.2122 84.8777 41.9404 84.4574 41.6965 84.0209L39.8008 80.9047L37.8547 77.8388C37.5646 77.4263 37.3026 76.9947 37.0704 76.547C37.1714 76.6388 37.2602 76.7431 37.3347 76.8574C37.494 77.0629 37.7163 77.369 37.9806 77.7507C38.5174 78.514 39.2388 79.5835 39.9853 80.7872C40.7319 81.991 41.382 83.1066 41.8308 83.9244C42.0572 84.3439 42.2502 84.6626 42.3508 84.8975C42.4235 85.0156 42.4773 85.1444 42.5102 85.2791Z" fill="#263238"/>
<path d="M55.3694 93.8478C55.2358 93.9172 55.0952 93.972 54.95 94.0113C54.7781 94.0688 54.603 94.1164 54.4257 94.1539C54.1939 94.2168 53.9586 94.2658 53.7211 94.3007C53.1063 94.4101 52.4833 94.4676 51.8589 94.4727C51.0927 94.474 50.3278 94.408 49.5731 94.2756C48.8192 94.1336 48.0795 93.9244 47.3628 93.6506C46.783 93.4242 46.222 93.1521 45.6852 92.837C45.4503 92.707 45.2657 92.5644 45.0812 92.4511C44.9285 92.3518 44.7814 92.244 44.6408 92.1282C44.5129 92.0404 44.3961 91.9376 44.2927 91.822C44.3179 91.7885 44.8379 92.1953 45.7606 92.7028C46.3016 92.9944 46.8622 93.248 47.4383 93.4619C48.8542 93.9897 50.352 94.2637 51.8631 94.2714C52.4789 94.2721 53.094 94.2314 53.7043 94.1497C54.7277 94.0029 55.3568 93.8058 55.3694 93.8478Z" fill="#263238"/>
<path d="M47.9751 79.55C47.9416 79.7136 45.962 83.656 45.962 83.656L36.6175 78.7322L35.6654 74.7058C35.5083 74.0592 35.1015 73.5012 34.534 73.1538C33.9665 72.8064 33.2845 72.6979 32.6373 72.852L29.8817 73.9802C29.7681 74.0247 29.6672 74.0966 29.5882 74.1895C29.5091 74.2825 29.4544 74.3936 29.4288 74.5129C29.391 74.7142 29.4288 74.9323 29.7936 74.8861C30.4773 74.8316 31.8907 74.6806 31.8907 74.6806L31.2406 76.9748C31.069 77.576 31.1351 78.2202 31.4252 78.7741L31.8446 79.5668L32.7547 81.0389H32.7337C32.7337 81.0389 41.8182 90.3708 46.9182 90.979C49.9841 91.3439 53.4568 82.7501 53.4568 82.7501L47.9751 79.55Z" fill="#B78876"/>
<path d="M31.8236 74.8358C31.8236 74.8358 31.8949 74.7393 32.0501 74.6345C32.2579 74.4898 32.5057 74.4135 32.7589 74.4164C32.8911 74.4238 33.0189 74.4667 33.1288 74.5405C33.2388 74.6143 33.3268 74.7163 33.3838 74.8358C33.4719 75.0245 33.4132 75.1504 33.3838 75.142C33.3545 75.1336 33.3838 75.0245 33.2832 74.8819C33.2213 74.7914 33.1397 74.7161 33.0446 74.6616C32.9494 74.6071 32.8431 74.5749 32.7337 74.5674C32.5067 74.5706 32.2838 74.6281 32.0836 74.7351C31.9536 74.7981 31.8362 74.8526 31.8236 74.8358Z" fill="#AA6550"/>
<path d="M33.0021 76.266C33.0021 76.266 32.9392 76.1905 32.8512 76.0773C32.7386 75.9328 32.5893 75.8211 32.4189 75.754C32.2485 75.6868 32.0632 75.6667 31.8823 75.6956C31.7397 75.6956 31.6516 75.7459 31.6433 75.7291C31.6349 75.7124 31.7104 75.6495 31.8613 75.5991C32.0609 75.5409 32.2741 75.5504 32.4677 75.6263C32.6612 75.7022 32.8241 75.8402 32.9308 76.0185C33.0063 76.1611 33.0147 76.2618 33.0021 76.266Z" fill="#AA6550"/>
<path d="M49.9128 67.106L47.3964 79.097L54.1069 83.1275L56.6821 75.7585C56.6821 75.7585 55.6 66.8082 49.9128 67.106Z" fill="#F7B731"/>
<path d="M53.5281 67.3157C53.5281 67.3157 53.4736 67.3619 53.3562 67.4248C53.2387 67.4877 53.071 67.58 52.8487 67.6932C52.4041 67.9197 51.7498 68.2384 50.932 68.6033C48.8058 69.5753 46.5672 70.2797 44.2675 70.7004C41.9534 71.1139 39.578 71.0339 37.2969 70.4655C36.6142 70.2862 35.9489 70.0461 35.3089 69.7483C35.0782 69.6519 34.8895 69.547 34.793 69.4883C34.7329 69.4582 34.6753 69.4232 34.6211 69.3834C34.8667 69.4665 35.1075 69.5631 35.3425 69.6728C35.9943 69.9361 36.6643 70.152 37.3473 70.3187C39.6111 70.837 41.956 70.894 44.2424 70.4865C46.5267 70.066 48.7556 69.3863 50.8859 68.4607C51.7247 68.1168 52.3664 67.819 52.8235 67.6219C53.0514 67.5044 53.2868 67.4021 53.5281 67.3157Z" fill="#EBEBEB"/>
<path d="M55.2939 68.6411C55.2364 68.6931 55.173 68.7381 55.1051 68.7753L54.5515 69.1318C54.2588 69.3235 53.9565 69.4999 53.6456 69.6603C53.2849 69.849 52.8822 70.0797 52.4083 70.2894L51.6785 70.6249C51.4227 70.7424 51.1459 70.8388 50.8649 70.9521C50.3071 71.1828 49.6863 71.3715 49.0404 71.5812C46.2086 72.4353 43.2488 72.7859 40.2957 72.6171C39.6163 72.5626 38.9704 72.5249 38.3748 72.4284C38.0728 72.3823 37.7834 72.3529 37.5066 72.3026L36.7139 72.1432C36.2106 72.0551 35.7619 71.9209 35.3676 71.8203C35.0286 71.7384 34.694 71.639 34.3652 71.5225L33.7403 71.3044C33.6655 71.2845 33.5936 71.2548 33.5264 71.2163C33.6038 71.2205 33.6801 71.2361 33.7529 71.2624L34.3904 71.4386C34.663 71.5225 34.9985 71.6189 35.397 71.7028C35.7954 71.7867 36.2358 71.9167 36.7475 71.9922L37.536 72.1348C37.8086 72.1851 38.098 72.2103 38.3748 72.2481C38.9704 72.3361 39.633 72.3697 40.2831 72.4158C43.2143 72.5648 46.1496 72.2174 48.9649 71.3883C49.6066 71.1869 50.2232 71.0066 50.781 70.7801C51.0578 70.6711 51.3346 70.5788 51.5905 70.4697L52.3244 70.1468C52.7984 69.9539 53.201 69.7274 53.5827 69.5512C53.9643 69.3751 54.2579 69.2031 54.5012 69.0605L55.08 68.7418C55.1464 68.6988 55.2184 68.6649 55.2939 68.6411Z" fill="#EBEBEB"/>
<path d="M54.0902 83.1276C53.9022 83.0482 53.72 82.9557 53.5449 82.8508L52.0686 82.012L47.0357 79.1055L46.9727 79.0677V78.9964C47.1531 78.1031 47.346 77.1384 47.5473 76.1486C47.8493 74.6555 48.1429 73.2379 48.3862 71.9545C48.5246 71.3086 48.6378 70.6963 48.7636 70.1133C48.8774 69.5744 49.0578 69.0517 49.3005 68.5573C49.6521 67.8229 50.2744 67.2532 51.0368 66.9677C51.2432 66.8966 51.4602 66.8612 51.6785 66.8628C51.7535 66.8577 51.8289 66.8662 51.9008 66.888C51.6147 66.8976 51.3317 66.9514 51.062 67.0474C50.3416 67.3512 49.761 67.9138 49.4347 68.6244C49.2079 69.113 49.0404 69.6269 48.9356 70.1552C48.8223 70.7298 48.7049 71.3464 48.5791 71.9881C48.3191 73.2882 48.0339 74.7058 47.7403 76.1822C47.5389 77.1762 47.3418 78.1366 47.1615 79.03L47.1111 78.9209L52.1147 81.8945L53.5617 82.7753C53.7474 82.8778 53.9241 82.9956 54.0902 83.1276Z" fill="#263238"/>
<path d="M56.1411 75.402C56.178 75.7751 56.1667 76.1515 56.1075 76.5218C56.0197 77.4182 55.8598 78.306 55.6294 79.1767C55.3992 80.0483 55.1019 80.9009 54.7402 81.7267C54.609 82.0779 54.4328 82.4106 54.216 82.7165C54.3186 82.3585 54.4461 82.0082 54.5976 81.668C55.2343 79.9992 55.6898 78.2669 55.9565 76.5008C55.9947 76.131 56.0563 75.764 56.1411 75.402Z" fill="#263238"/>
<path d="M19.7571 142.101L19.6816 148.501C19.6816 148.501 13.1472 150.577 13.0214 151.76L25.4276 152.347L25.956 142.378L19.7571 142.101Z" fill="#455A64"/>
<path d="M23.5654 148.145C23.6831 148.187 23.7812 148.271 23.8408 148.381C23.9004 148.491 23.9173 148.619 23.8883 148.74C23.8514 148.86 23.7697 148.961 23.6603 149.022C23.551 149.082 23.4223 149.099 23.3012 149.067C23.1768 149.022 23.0736 148.932 23.011 148.815C22.9483 148.699 22.9307 148.563 22.9614 148.434C23.0141 148.314 23.1113 148.219 23.2324 148.169C23.3536 148.119 23.4895 148.118 23.6115 148.166" fill="#E0E0E0"/>
<path d="M25.4276 152.347V151.341L13.5247 151.152C13.5247 151.152 12.9585 151.366 13.0046 151.76L25.4276 152.347Z" fill="#E0E0E0"/>
<path d="M19.4845 148.43C19.4845 148.489 19.7865 148.531 20.0717 148.74C20.3569 148.95 20.4911 149.21 20.5666 149.189C20.6421 149.168 20.5666 148.816 20.1933 148.568C19.8201 148.321 19.4719 148.371 19.4845 148.43Z" fill="#263238"/>
<path d="M18.155 148.904C18.155 148.963 18.3982 149.08 18.5744 149.344C18.7505 149.609 18.8135 149.885 18.8764 149.885C18.9393 149.885 18.9896 149.546 18.7422 149.218C18.4947 148.891 18.1592 148.849 18.155 148.904Z" fill="#263238"/>
<path d="M17.3413 150.426C17.3959 150.426 17.4965 150.145 17.3413 149.806C17.1861 149.466 16.9219 149.323 16.8967 149.386C16.8716 149.449 17.0352 149.621 17.1442 149.902C17.2533 150.183 17.2742 150.418 17.3413 150.426Z" fill="#263238"/>
<path d="M19.6607 146.97C19.6858 147.029 19.9668 146.97 20.3108 146.996C20.6547 147.021 20.9105 147.159 20.9441 147.109C20.9776 147.058 20.7344 146.828 20.3317 146.786C19.9291 146.744 19.6355 146.924 19.6607 146.97Z" fill="#263238"/>
<g opacity="0.3">
<path d="M19.7446 143.368L19.7278 144.508L25.8302 144.743L25.8847 143.716L19.7446 143.368Z" fill="black"/>
</g>
<path d="M19.7026 145.679C19.9029 145.745 20.1177 145.755 20.3233 145.708C20.5492 145.679 20.7705 145.621 20.9818 145.536C21.1081 145.489 21.2301 145.432 21.3467 145.364C21.4192 145.33 21.4857 145.285 21.5438 145.23C21.5859 145.188 21.6129 145.134 21.6205 145.076C21.6281 145.017 21.6159 144.958 21.5858 144.907C21.5569 144.863 21.5185 144.827 21.4734 144.801C21.4283 144.775 21.3778 144.759 21.3257 144.756C21.2469 144.752 21.1678 144.759 21.0909 144.777C20.9577 144.803 20.8271 144.841 20.7008 144.89C20.4874 144.976 20.288 145.093 20.1094 145.238C19.8075 145.494 19.69 145.716 19.7194 145.729C19.7488 145.742 19.8955 145.565 20.1975 145.36C20.3751 145.242 20.5667 145.146 20.7679 145.075C20.8856 145.035 21.0062 145.004 21.1286 144.982C21.2628 144.953 21.3761 144.957 21.4054 145.016C21.4348 145.075 21.4054 145.049 21.4054 145.087C21.362 145.126 21.3141 145.16 21.2628 145.188C21.1496 145.251 21.0363 145.31 20.9273 145.36C20.7297 145.445 20.5247 145.513 20.315 145.561C20.1085 145.587 19.904 145.626 19.7026 145.679Z" fill="#263238"/>
<path d="M19.7907 145.771C19.9154 145.599 19.9815 145.392 19.9794 145.179C20.0027 144.95 19.9857 144.719 19.9291 144.496C19.8953 144.363 19.8475 144.233 19.7865 144.11C19.757 144.026 19.7063 143.952 19.6394 143.894C19.5725 143.836 19.4917 143.796 19.4048 143.779C19.35 143.777 19.2958 143.791 19.2489 143.819C19.2019 143.847 19.1643 143.889 19.1406 143.938C19.1036 144.009 19.0781 144.085 19.0651 144.165C19.0441 144.304 19.0441 144.445 19.0651 144.584C19.0881 144.818 19.1688 145.043 19.3 145.238C19.5265 145.574 19.7781 145.658 19.7823 145.637C19.7865 145.616 19.5978 145.481 19.4258 145.163C19.3274 144.98 19.2702 144.778 19.258 144.571C19.2513 144.45 19.2612 144.329 19.2874 144.211C19.3126 144.081 19.3671 143.976 19.4174 143.993C19.4677 144.009 19.5768 144.097 19.6229 144.206C19.6798 144.316 19.7261 144.432 19.7613 144.55C19.8216 144.753 19.8526 144.964 19.8536 145.175C19.82 145.536 19.7446 145.758 19.7907 145.771Z" fill="#263238"/>
<path d="M45.0476 95.7519C45.0476 95.7519 25.6625 87.6153 19.6649 87.2756C15.8902 87.0575 13.0549 89.4733 13.5666 93.3654C13.8225 95.3157 19.1784 118.111 19.1784 118.111L27.3401 114.386L23.4144 98.6207L39.352 106.363L45.0476 95.7519Z" fill="#263238"/>
<path d="M20.9776 94.632C20.9147 94.6866 21.5564 95.5128 22.2359 96.6075C22.9153 97.7021 23.3683 98.6458 23.4438 98.6165C23.5193 98.5871 23.1711 97.5763 22.4791 96.4607C21.7871 95.345 21.0489 94.5817 20.9776 94.632Z" fill="#455A64"/>
<path d="M19.3922 95.538C19.3503 95.6093 20.3275 96.23 21.4893 97.0772C22.6511 97.9244 23.5235 98.6668 23.5864 98.6081C23.6493 98.5493 22.8105 97.6812 21.6445 96.8423C20.4785 96.0035 19.4258 95.4709 19.3922 95.538Z" fill="#455A64"/>
<path d="M60.1674 100.642C60.1674 100.642 57.7306 103.784 55.4071 104.643C52.4712 105.721 30.8883 115.909 30.8883 115.909C30.8883 115.909 26.971 145.012 27.2814 143.795L18.2431 143.577L19.2245 116.773C19.3419 113.342 22.0933 109.399 25.0501 107.646L45.0476 95.7518L60.1674 100.642Z" fill="#263238"/>
<path d="M19.0525 121.68C19.0812 121.559 19.0939 121.435 19.0903 121.311C19.0903 121.042 19.1238 120.694 19.1448 120.258C19.1961 118.968 19.3165 117.681 19.5055 116.404C19.7703 114.516 20.4398 112.707 21.4683 111.102C22.1048 110.18 22.8899 109.369 23.7919 108.703C24.7706 107.99 25.7948 107.342 26.8578 106.761C31.2071 104.27 34.9608 101.728 37.7373 99.9879C39.1214 99.1072 40.2538 98.4067 41.0255 97.9286L41.923 97.375C42.0316 97.3151 42.1341 97.2449 42.2292 97.1653C42.1137 97.2071 42.0027 97.2605 41.8979 97.3247C41.684 97.4379 41.3694 97.6057 40.971 97.8321C40.1699 98.2809 39.0291 98.9604 37.6157 99.816C34.8098 101.519 31.0351 104.031 26.711 106.527C25.637 107.113 24.603 107.77 23.6157 108.494C22.6912 109.179 21.8887 110.016 21.2418 110.968C20.2072 112.615 19.5472 114.469 19.3084 116.399C19.1356 117.686 19.046 118.981 19.0399 120.279C19.0399 120.698 19.0399 121.063 19.0399 121.336C19.0339 121.451 19.0381 121.566 19.0525 121.68Z" fill="#455A64"/>
<path d="M52.1902 103.708C52.0227 103.448 51.8377 103.2 51.6366 102.966C51.22 102.36 50.9308 101.676 50.7866 100.955C50.6424 100.234 50.6462 99.4911 50.7978 98.7717C50.8909 98.4764 50.9638 98.1751 51.0159 97.8699C50.8122 98.1128 50.6686 98.4001 50.5964 98.7088C50.3817 99.4535 50.35 100.239 50.5042 100.999C50.6547 101.758 50.9887 102.47 51.4772 103.071C51.8589 103.553 52.1734 103.733 52.1902 103.708Z" fill="#455A64"/>
<path d="M21.5648 143.577C21.5796 143.53 21.5881 143.48 21.59 143.431C21.59 143.313 21.6235 143.171 21.6445 142.99C21.6906 142.571 21.7493 142.017 21.8248 141.313C21.9716 139.819 22.1813 137.693 22.4414 135.076C22.563 133.759 22.7014 132.316 22.8608 130.769C23.0202 129.221 23.167 127.564 23.2802 125.819C23.3934 124.075 23.578 122.25 23.8967 120.367C24.208 118.435 24.7721 116.553 25.5744 114.768C26.4122 113.004 27.5187 111.382 28.8542 109.957C30.1056 108.632 31.4758 107.425 32.9476 106.35C35.4701 104.574 38.0899 102.94 40.7948 101.456C43.089 100.139 44.9176 99.0149 46.1297 98.1677C46.7421 97.7483 47.2034 97.4085 47.5138 97.1695L47.8619 96.8969C47.9402 96.8354 47.9779 96.8018 47.9751 96.7962C47.9284 96.8151 47.8847 96.8405 47.8451 96.8717L47.4802 97.1234C47.1615 97.3456 46.6875 97.6728 46.071 98.0796C44.8379 98.8933 43.0009 99.9879 40.6942 101.284C37.9672 102.746 35.3287 104.368 32.7924 106.141C31.301 107.218 29.9137 108.433 28.6487 109.769C27.2893 111.212 26.1642 112.859 25.3143 114.651C24.5086 116.457 23.9446 118.363 23.6367 120.317C23.3221 122.204 23.1628 124.037 23.0327 125.769C22.9027 127.501 22.7727 129.171 22.6133 130.718C22.454 132.266 22.3533 133.709 22.2401 135.03C22.0178 137.651 21.8206 139.777 21.7158 141.275C21.6599 141.996 21.6179 142.555 21.59 142.952C21.59 143.133 21.569 143.28 21.5606 143.393C21.5522 143.506 21.5564 143.577 21.5648 143.577Z" fill="#455A64"/>
<path d="M42.8583 49.5914C42.5539 48.8076 41.9801 48.1579 41.2399 47.7589C40.4997 47.36 39.6415 47.2379 38.8194 47.4147C38.4577 47.547 38.0794 47.6288 37.6954 47.6579C37.2299 47.5782 36.7723 47.4575 36.3281 47.2972C35.8247 47.2156 35.3089 47.3241 34.881 47.6016C34.4532 47.8791 34.1437 48.3058 34.0129 48.7987C33.619 48.703 33.2089 48.6943 32.8112 48.7733C32.4135 48.8522 32.0379 49.0169 31.7104 49.2559C31.3892 49.5046 31.1612 49.8542 31.063 50.2483C30.9649 50.6425 31.0023 51.0582 31.1693 51.4284C31.3329 51.7346 31.5887 51.9779 31.7523 52.2924C31.9998 52.8083 31.8865 53.429 32.0585 53.9701C32.2199 54.3635 32.4888 54.7036 32.8344 54.9513C33.1801 55.199 33.5885 55.3444 34.0129 55.3709C34.8669 55.4148 35.7213 55.2938 36.5294 55.0144" fill="#263238"/>
<path d="M38.9536 66.1791C38.8487 65.3655 38.7816 64.7951 38.7816 64.7951C38.7816 64.7951 36.0764 64.7951 35.0069 61.4398C34.4659 59.7621 34.1052 56.9605 33.8871 54.6453C33.8394 54.1521 33.8921 53.6544 34.042 53.1821C34.1918 52.7099 34.4358 52.2728 34.7591 51.8974C35.0824 51.522 35.4784 51.2159 35.9232 50.9976C36.3681 50.7793 36.8525 50.6534 37.3472 50.6274L44.5276 50.2541L44.6828 51.3655L46.5743 65.1726C46.6427 65.6731 46.6115 66.1823 46.4824 66.6708C46.3533 67.1593 46.1289 67.6174 45.8222 68.0189C45.5154 68.4203 45.1324 68.7572 44.695 69.0101C44.2576 69.263 43.7745 69.4269 43.2735 69.4925C42.7722 69.5596 42.2625 69.5271 41.7737 69.3968C41.285 69.2665 40.8267 69.041 40.4254 68.7331C40.024 68.4253 39.6874 68.0412 39.4348 67.6029C39.1822 67.1646 39.0187 66.6808 38.9536 66.1791Z" fill="#B78876"/>
<path d="M34.8895 56.6208C34.9072 56.7355 34.9686 56.8389 35.0609 56.9093C35.1532 56.9797 35.2691 57.0116 35.3844 56.9983C35.4415 56.9947 35.4972 56.9795 35.5482 56.9536C35.5992 56.9277 35.6443 56.8916 35.6808 56.8476C35.7174 56.8036 35.7445 56.7526 35.7606 56.6977C35.7767 56.6429 35.7814 56.5853 35.7745 56.5285C35.7588 56.4129 35.6979 56.3082 35.6051 56.2374C35.5123 56.1666 35.3952 56.1356 35.2796 56.1511C35.2225 56.1546 35.1667 56.1698 35.1158 56.1958C35.0648 56.2217 35.0196 56.2577 34.9831 56.3017C34.9466 56.3457 34.9194 56.3967 34.9033 56.4516C34.8872 56.5065 34.8825 56.564 34.8895 56.6208Z" fill="#263238"/>
<path d="M34.705 56C34.7679 56.0462 35.0615 55.7484 35.5438 55.6729C36.0261 55.5974 36.3826 55.7819 36.4455 55.7148C36.5084 55.6477 36.3952 55.589 36.2274 55.5051C36 55.3935 35.743 55.3568 35.4935 55.4003C35.2465 55.4372 35.0183 55.5535 34.8434 55.7316C34.705 55.8658 34.6714 55.9791 34.705 56Z" fill="#263238"/>
<path d="M39.3856 55.8575C39.4032 55.9719 39.4648 56.0749 39.5573 56.1446C39.6497 56.2143 39.7656 56.2453 39.8805 56.2308C39.9375 56.2277 39.9933 56.213 40.0445 56.1876C40.0957 56.1622 40.1411 56.1266 40.178 56.083C40.2149 56.0394 40.2425 55.9888 40.2592 55.9341C40.2758 55.8795 40.2811 55.822 40.2747 55.7652C40.2571 55.6505 40.1956 55.5472 40.1034 55.4768C40.0111 55.4064 39.8951 55.3745 39.7798 55.3878C39.7224 55.3908 39.6662 55.4056 39.6147 55.4313C39.5633 55.4569 39.5176 55.4929 39.4806 55.537C39.4437 55.581 39.4161 55.6322 39.3998 55.6874C39.3834 55.7425 39.3786 55.8004 39.3856 55.8575Z" fill="#263238"/>
<path d="M39.3772 55.3458C39.4401 55.3961 39.7337 55.0941 40.216 55.0228C40.6983 54.9515 41.0548 55.1277 41.1178 55.0606C41.1807 54.9935 41.0674 54.939 40.8997 54.8509C40.6711 54.743 40.4153 54.7065 40.1657 54.746C39.9197 54.7858 39.6923 54.9016 39.5156 55.0774C39.3772 55.2116 39.3478 55.3206 39.3772 55.3458Z" fill="#263238"/>
<path d="M38.2154 59.1373C37.9524 59.1018 37.6858 59.1018 37.4227 59.1373C37.3011 59.1373 37.1837 59.1372 37.1501 59.0576C37.1116 58.9361 37.1116 58.8057 37.1501 58.6843C37.2172 58.3739 37.2885 58.0468 37.364 57.7071C37.5688 56.8733 37.709 56.0249 37.7834 55.1696C37.5086 55.9905 37.2997 56.832 37.1585 57.6861C37.0914 58.03 37.0243 58.3571 36.9656 58.6717C36.907 58.8271 36.907 58.9986 36.9656 59.154C36.9901 59.1938 37.0231 59.2276 37.0623 59.2529C37.1015 59.2783 37.1458 59.2947 37.1921 59.3008C37.2617 59.3096 37.3321 59.3096 37.4018 59.3008C37.6788 59.2809 37.9522 59.226 38.2154 59.1373Z" fill="#263238"/>
<path d="M38.7816 64.7951C40.4026 64.5625 41.9271 63.8844 43.1855 62.8365C43.1855 62.8365 42.4389 65.3865 38.9536 65.6004L38.7816 64.7951Z" fill="#AA6550"/>
<path d="M39.6624 59.2421C39.5827 59.2421 39.6624 59.7622 39.2849 60.1984C38.9075 60.6346 38.3455 60.6639 38.3496 60.7352C38.3538 60.8065 38.488 60.8191 38.7229 60.7856C39.0252 60.7449 39.3024 60.5959 39.503 60.3661C39.6995 60.1485 39.802 59.8621 39.7882 59.5693C39.7756 59.3512 39.696 59.2337 39.6624 59.2421Z" fill="#263238"/>
<path d="M38.9578 53.5087C39.0249 53.6304 39.4904 53.5087 40.0566 53.471C40.6229 53.4332 41.0968 53.5297 41.1513 53.4039C41.2058 53.2781 41.08 53.2361 40.8787 53.1397C40.6117 53.0232 40.3215 52.9698 40.0306 52.9836C39.7396 52.9974 39.4558 53.0781 39.201 53.2194C39.0165 53.3326 38.9284 53.45 38.9578 53.5087Z" fill="#263238"/>
<path d="M34.6588 54.5992C34.7595 54.6915 35.0782 54.5279 35.4599 54.4608C35.8416 54.3937 36.1981 54.4189 36.2568 54.2931C36.2819 54.2344 36.2106 54.1337 36.0513 54.0582C35.8367 53.9628 35.5978 53.9364 35.3676 53.9827C35.1379 54.0232 34.9267 54.1347 34.7637 54.3015C34.642 54.4357 34.6127 54.5531 34.6588 54.5992Z" fill="#263238"/>
<path d="M33.5096 53.1312C33.5096 53.1312 35.4096 53.7729 37.5905 52.3134C39.0207 51.3571 40.7571 50.7574 41.1891 51.0174C41.6211 51.2774 41.9021 52.8377 43.4749 53.1145C43.4749 53.1145 43.7517 56.1342 44.9386 55.8742C45.7774 55.6897 45.2909 52.3595 44.9386 50.4596C44.865 50.0923 44.6706 49.7601 44.3863 49.5161C44.102 49.2722 43.7442 49.1303 43.37 49.1133L41.1597 49.0252L38.4 49.7969L35.4389 50.6022L33.1825 51.5459L33.5096 53.1312Z" fill="#263238"/>
<path d="M44.6744 54.6454C44.7163 54.6161 46.5491 53.6514 46.8889 55.652C47.2286 57.6526 45.1525 57.5771 45.1357 57.5226C45.1189 57.468 44.6744 54.6454 44.6744 54.6454Z" fill="#B78876"/>
<path d="M45.618 56.6585C45.618 56.6585 45.66 56.6795 45.7229 56.6962C45.8112 56.7172 45.9042 56.7037 45.9829 56.6585C46.097 56.5543 46.1818 56.422 46.2289 56.2748C46.276 56.1277 46.2837 55.9708 46.2514 55.8197C46.2271 55.6477 46.1656 55.483 46.071 55.3373C46.0406 55.2784 45.9965 55.2275 45.9426 55.1888C45.8886 55.1502 45.8263 55.1249 45.7606 55.1151C45.719 55.1115 45.6774 55.1225 45.643 55.1462C45.6085 55.17 45.5834 55.2049 45.5719 55.2451C45.5719 55.3038 45.5719 55.3415 45.5719 55.3499C45.5719 55.3583 45.5258 55.3206 45.5258 55.2367C45.5293 55.1853 45.55 55.1366 45.5845 55.0983C45.6329 55.0476 45.699 55.0176 45.769 55.0144C45.8543 55.016 45.9378 55.0396 46.0113 55.083C46.0848 55.1263 46.1458 55.188 46.1884 55.2619C46.3032 55.4203 46.3767 55.6048 46.4023 55.7987C46.4439 55.9753 46.4318 56.1602 46.3676 56.3299C46.3033 56.4995 46.1898 56.6461 46.0416 56.7508C45.9905 56.775 45.9347 56.7876 45.8781 56.7876C45.8215 56.7876 45.7656 56.775 45.7145 56.7508C45.6306 56.7088 45.6138 56.6669 45.618 56.6585Z" fill="#AA6550"/>
<path d="M34.4701 48.0606C34.4701 48.0606 34.5372 48.1696 34.6798 48.329C34.884 48.5551 35.1445 48.7229 35.4347 48.8155C35.8659 48.9548 36.3267 48.9751 36.7685 48.8743C37.3178 48.7407 37.8573 48.5698 38.3832 48.3626C38.9277 48.1482 39.5094 48.0441 40.0944 48.0564C40.5892 48.0743 41.0573 48.285 41.3988 48.6436C41.6313 48.8776 41.7726 49.187 41.7972 49.516C41.8147 49.6353 41.7941 49.7571 41.7385 49.8641C41.7175 49.8641 41.7385 49.7382 41.7133 49.5243C41.661 49.2272 41.5139 48.955 41.2939 48.7484C40.9707 48.4387 40.542 48.2633 40.0944 48.2577C39.5359 48.2582 38.9825 48.3634 38.4629 48.5681C37.9282 48.7808 37.3769 48.9491 36.8146 49.0714C36.3398 49.1696 35.847 49.1318 35.3928 48.9623C35.0844 48.8491 34.8161 48.6479 34.6211 48.3835C34.4701 48.1906 34.4701 48.0648 34.4701 48.0606Z" fill="#455A64"/>
<path d="M41.2268 49.9773C41.2268 49.9773 41.1261 49.8724 40.9164 49.7256C40.6173 49.5426 40.2731 49.4468 39.9224 49.4488C39.3907 49.4468 38.8666 49.575 38.3958 49.8221C37.8074 50.1399 37.1994 50.4201 36.5755 50.6609C35.9836 50.8446 35.3603 50.9048 34.7442 50.8377C34.128 50.7706 33.5323 50.5777 32.9938 50.2709C32.668 50.0876 32.37 49.8588 32.1088 49.5914C32.0071 49.5005 31.922 49.3927 31.8572 49.2727C32.2285 49.6009 32.6334 49.8891 33.0651 50.1325C34.1256 50.6891 35.3629 50.8051 36.5084 50.4554C37.1234 50.2066 37.7254 49.9267 38.3119 49.6166C38.8125 49.3633 39.3705 49.2447 39.9308 49.2727C40.3116 49.2873 40.6783 49.4207 40.9794 49.6543C41.0894 49.7378 41.1749 49.8493 41.2268 49.9773Z" fill="#455A64"/>
<path d="M35.0153 84.0587L25.2766 75.7585L22.0639 76.4841C22.0639 76.4841 25.4486 83.5219 27.8979 86.1012C27.8979 86.1012 30.3179 89.3391 34.3107 87.9383C38.3035 86.5374 35.0153 84.0587 35.0153 84.0587Z" fill="#B78876"/>
<path d="M24.5384 66.6154H20.3988C20.2426 66.6238 20.0903 66.667 19.9529 66.7418C19.8154 66.8165 19.6964 66.921 19.6044 67.0475C19.5124 67.1741 19.4498 67.3195 19.4211 67.4733C19.3924 67.627 19.3983 67.7853 19.4384 67.9365L23.6031 76.0437C23.6821 76.1981 23.8023 76.3277 23.9503 76.418C24.0984 76.5083 24.2685 76.5559 24.442 76.5554H29.4749C29.5932 76.5422 29.7064 76.4999 29.8044 76.4324C29.9025 76.3648 29.9822 76.274 30.0366 76.1681C30.091 76.0622 30.1184 75.9445 30.1162 75.8255C30.1141 75.7064 30.0825 75.5898 30.0243 75.4859L26.0106 67.5465C25.8739 67.2714 25.6644 67.0391 25.4048 66.8749C25.1452 66.7107 24.8455 66.6209 24.5384 66.6154Z" fill="#455A64"/>
<path d="M24.2616 67.1061H20.122C20.0032 67.1053 19.8862 67.1352 19.7823 67.1928C19.6784 67.2504 19.591 67.3337 19.5287 67.4349C19.4663 67.536 19.431 67.6515 19.4262 67.7702C19.4214 67.8889 19.4473 68.0069 19.5013 68.1127L23.5654 76.0437C23.6451 76.1975 23.7654 76.3266 23.9133 76.4168C24.0612 76.507 24.231 76.5549 24.4042 76.5554H29.3952C29.4637 76.5526 29.5305 76.5329 29.5897 76.4983C29.6489 76.4636 29.6986 76.415 29.7347 76.3566C29.7707 76.2983 29.7918 76.2319 29.7963 76.1635C29.8007 76.0951 29.7883 76.0266 29.7601 75.9641L25.7421 68.0288C25.6064 67.7519 25.3957 67.5186 25.134 67.3555C24.8722 67.1924 24.57 67.106 24.2616 67.1061Z" fill="#263238"/>
<path d="M23.9093 70.4195L21.3928 71.4261L20.856 73.456L22.0681 76.4758L26.5013 77.1301L25.2011 75.8005L25.3647 74.6388C25.3647 74.6388 26.6229 74.2487 26.6229 74.06C26.6229 73.8712 26.4677 73.2212 26.279 73.2002C25.7825 73.3136 25.2958 73.4664 24.8236 73.6574C24.8236 73.6574 26.3629 72.4369 26.3209 72.2397C26.279 72.0426 26.1112 71.5435 25.805 71.4848C25.4989 71.4261 23.0076 72.6046 23.0076 72.6046L22.5882 73.5231L22.2359 72.051C22.2359 72.051 24.4545 71.4303 23.9093 70.4195Z" fill="#B78876"/>
<path d="M24.2281 75.184C24.2281 75.184 24.1652 75.1001 24.14 74.9323C24.1135 74.7187 24.1376 74.5018 24.2105 74.2993C24.2834 74.0967 24.4029 73.9141 24.5594 73.7663C24.6852 73.6573 24.7817 73.6196 24.7901 73.6321C24.5987 73.8441 24.4416 74.0847 24.3245 74.3451C24.2499 74.6182 24.2173 74.9011 24.2281 75.184Z" fill="#AA6550"/>
<path d="M23.0285 74.7436C23.0777 74.5267 23.1113 74.3067 23.1292 74.0851C23.1394 73.8374 23.1817 73.5921 23.255 73.3553C23.3029 73.2032 23.3866 73.0649 23.499 72.9518C23.6113 72.8387 23.7492 72.7541 23.9009 72.7052C24.5007 72.4871 25.0459 72.311 25.4402 72.181C25.651 72.1013 25.8685 72.0409 26.0903 72.0006C25.895 72.112 25.6883 72.202 25.4737 72.269C25.0837 72.42 24.5384 72.613 23.9471 72.8269C23.8089 72.8744 23.6829 72.9517 23.578 73.0533C23.4849 73.1521 23.4134 73.2692 23.3683 73.3973C23.2915 73.624 23.2422 73.8592 23.2215 74.0977C23.2133 74.3259 23.1469 74.5483 23.0285 74.7436Z" fill="#AA6550"/>
<path d="M22.4498 74.2906C22.4101 74.1266 22.4101 73.9555 22.4498 73.7915C22.4959 73.5231 22.5588 73.3134 22.5965 73.3176C22.6359 73.4816 22.6359 73.6526 22.5965 73.8167C22.5504 74.0851 22.4875 74.2948 22.4498 74.2906Z" fill="#AA6550"/>
<path d="M22.3827 68.6369C22.3827 68.7414 22.4136 68.8436 22.4717 68.9305C22.5298 69.0174 22.6123 69.0851 22.7089 69.1251C22.8054 69.1651 22.9117 69.1756 23.0142 69.1552C23.1167 69.1348 23.2109 69.0845 23.2848 69.0106C23.3587 68.9366 23.409 68.8425 23.4294 68.74C23.4498 68.6375 23.4393 68.5312 23.3993 68.4346C23.3593 68.3381 23.2916 68.2555 23.2047 68.1975C23.1178 68.1394 23.0156 68.1084 22.9111 68.1084C22.8416 68.1079 22.7726 68.1211 22.7082 68.1475C22.6439 68.1739 22.5854 68.2128 22.5362 68.262C22.487 68.3111 22.4481 68.3696 22.4217 68.434C22.3954 68.4983 22.3821 68.5673 22.3827 68.6369Z" fill="#FAFAFA"/>
<path d="M7.87942 148.581C8.53635 148.785 9.1454 149.119 9.67006 149.563C10.1947 150.008 10.6242 150.554 10.9327 151.169C11.5442 152.404 11.8641 153.763 11.868 155.141C11.9519 157.791 10.853 160.643 9.55707 162.963C7.07834 161.369 6.08853 158.076 5.6859 156.399C5.05678 153.723 5.5391 148.505 7.87942 148.577" fill="#F7B731"/>
<path d="M12.7404 166.905C12.482 166.181 12.4196 165.401 12.5596 164.644C12.6995 163.888 13.0368 163.182 13.5373 162.598C14.048 162.023 14.6683 161.556 15.3619 161.224C16.0554 160.892 16.8082 160.702 17.5762 160.664C18.2808 160.614 19.0693 160.706 19.5516 161.226C19.7636 161.482 19.9033 161.79 19.9564 162.118C20.0095 162.446 19.974 162.783 19.8536 163.093C19.6029 163.71 19.1934 164.249 18.6667 164.657C16.9345 166.133 14.9884 167.241 12.7404 166.905Z" fill="#F7B731"/>
<path d="M11.0879 175.323C11.0689 175.141 11.0689 174.959 11.0879 174.777C11.0879 174.387 11.1215 173.888 11.1424 173.288C11.1589 171.636 11.4421 169.998 11.9813 168.436C12.5451 166.871 13.5149 165.484 14.7913 164.418C15.1787 164.105 15.6009 163.837 16.0496 163.621C16.2089 163.541 16.3431 163.504 16.427 163.466C16.5109 163.428 16.5612 163.42 16.5654 163.428C15.5307 163.94 14.6078 164.652 13.8504 165.523C13.093 166.394 12.5161 167.407 12.1532 168.503C11.6284 170.049 11.3358 171.665 11.285 173.297C11.2431 173.922 11.2054 174.429 11.1718 174.782C11.1588 174.964 11.1307 175.145 11.0879 175.323Z" fill="#263238"/>
<path d="M7.86264 152.586C7.88775 152.662 7.90737 152.739 7.92136 152.817C7.95771 152.99 8.00384 153.213 8.05977 153.484C8.1772 154.063 8.33658 154.906 8.52112 155.946C8.8944 158.043 9.35994 160.916 9.8171 164.112C10.2743 167.308 10.614 170.21 10.8321 172.315C10.9411 173.368 11.0208 174.22 11.0711 174.811C11.0907 175.091 11.1075 175.317 11.1215 175.49C11.1335 175.568 11.1335 175.647 11.1215 175.725C11.1005 175.648 11.0865 175.57 11.0795 175.49C11.0586 175.318 11.0292 175.096 10.9915 174.815C10.916 174.207 10.8153 173.364 10.6895 172.332C10.4378 170.235 10.0729 167.333 9.62417 164.137C9.1754 160.941 8.72244 158.076 8.38691 155.979C8.21914 154.952 8.08493 154.113 7.9675 153.505C7.92556 153.228 7.892 153.006 7.86264 152.834C7.85168 152.752 7.85168 152.668 7.86264 152.586Z" fill="#263238"/>
<path d="M9.16701 169.048C8.6736 167.506 7.82017 166.104 6.67732 164.958C5.53447 163.811 4.13505 162.953 2.59483 162.455C1.80634 162.208 0.81653 162.12 0.288072 162.753C-0.240386 163.386 0.0448132 164.351 0.451642 165.068C1.32671 166.55 2.62118 167.739 4.1716 168.485C5.72202 169.232 7.45887 169.502 9.16282 169.262" fill="#F7B731"/>
<path d="M3.29525 164.879C3.46396 164.909 3.62961 164.954 3.79016 165.014C3.98297 165.07 4.17207 165.139 4.35637 165.219C4.57446 165.316 4.8303 165.399 5.09034 165.542C5.37777 165.683 5.65776 165.838 5.92916 166.008C6.24861 166.2 6.55798 166.408 6.85606 166.632C8.22858 167.663 9.32855 169.014 10.0604 170.567C10.2194 170.904 10.3594 171.25 10.4798 171.602C10.59 171.907 10.6811 172.218 10.7524 172.534C10.8175 172.793 10.8679 173.057 10.9034 173.322C10.9398 173.52 10.9636 173.721 10.9747 173.922C10.992 174.092 10.9948 174.263 10.9831 174.434C10.9369 174.434 10.9076 173.7 10.6098 172.563C10.5304 172.255 10.4352 171.951 10.3246 171.653C10.2042 171.307 10.0642 170.968 9.90518 170.638C9.53323 169.892 9.08185 169.189 8.55887 168.541C8.02104 167.895 7.41653 167.307 6.7554 166.788C6.46575 166.564 6.16477 166.355 5.85366 166.163C5.58301 165.987 5.30299 165.826 5.01484 165.68C3.98728 165.123 3.27848 164.917 3.29525 164.879Z" fill="#263238"/>
</svg>
